G04 #@! TF.GenerationSoftware,KiCad,Pcbnew,7.0.10*
G04 #@! TF.CreationDate,2024-02-23T16:37:41+09:00*
G04 #@! TF.ProjectId,game_pad,67616d65-5f70-4616-942e-6b696361645f,1*
G04 #@! TF.SameCoordinates,Original*
G04 #@! TF.FileFunction,Copper,L1,Top*
G04 #@! TF.FilePolarity,Positive*
%FSLAX46Y46*%
G04 Gerber Fmt 4.6, Leading zero omitted, Abs format (unit mm)*
G04 Created by KiCad (PCBNEW 7.0.10) date 2024-02-23 16:37:41*
%MOMM*%
%LPD*%
G01*
G04 APERTURE LIST*
G04 #@! TA.AperFunction,ComponentPad*
%ADD10O,1.600000X1.200000*%
G04 #@! TD*
G04 #@! TA.AperFunction,ComponentPad*
%ADD11R,1.700000X1.700000*%
G04 #@! TD*
G04 #@! TA.AperFunction,ComponentPad*
%ADD12O,1.700000X1.700000*%
G04 #@! TD*
G04 #@! TA.AperFunction,ComponentPad*
%ADD13R,2.200000X2.200000*%
G04 #@! TD*
G04 #@! TA.AperFunction,ComponentPad*
%ADD14O,2.200000X2.200000*%
G04 #@! TD*
G04 #@! TA.AperFunction,ViaPad*
%ADD15C,0.800000*%
G04 #@! TD*
G04 #@! TA.AperFunction,Conductor*
%ADD16C,0.600000*%
G04 #@! TD*
G04 APERTURE END LIST*
D10*
X150790000Y-130700000D03*
X155790000Y-132900000D03*
D11*
X93980000Y-73660000D03*
D12*
X96520000Y-73660000D03*
X99060000Y-73660000D03*
X101600000Y-73660000D03*
X104140000Y-73660000D03*
X106680000Y-73660000D03*
D13*
X130556000Y-119888000D03*
D14*
X140716000Y-119888000D03*
D13*
X130556000Y-124968000D03*
D14*
X140716000Y-124968000D03*
D10*
X171315000Y-110380000D03*
X176315000Y-112580000D03*
D13*
X130556000Y-130048000D03*
D14*
X140716000Y-130048000D03*
D13*
X109982000Y-108585000D03*
D14*
X109982000Y-98425000D03*
D10*
X71200000Y-130700000D03*
X76200000Y-132900000D03*
D13*
X116205000Y-108585000D03*
D14*
X116205000Y-98425000D03*
D10*
X130470000Y-110380000D03*
X135470000Y-112580000D03*
D13*
X130556000Y-135128000D03*
D14*
X140716000Y-135128000D03*
D10*
X150780000Y-90060000D03*
X155780000Y-92260000D03*
D11*
X68580000Y-73660000D03*
D12*
X71120000Y-73660000D03*
X73660000Y-73660000D03*
X76200000Y-73660000D03*
X78740000Y-73660000D03*
X81280000Y-73660000D03*
X83820000Y-73660000D03*
X86360000Y-73660000D03*
X88900000Y-73660000D03*
D10*
X99560000Y-130700000D03*
X104560000Y-132900000D03*
D15*
X90170000Y-95250000D03*
X90170000Y-102235000D03*
X132080000Y-94615000D03*
X86360000Y-88265000D03*
X94615000Y-88265000D03*
X99060000Y-83820000D03*
X92710000Y-104140000D03*
D16*
X100965000Y-129540000D02*
X100965000Y-104140000D01*
X100965000Y-104140000D02*
X106605000Y-98500000D01*
X105410000Y-98425000D02*
X88265000Y-98425000D01*
X106530000Y-98425000D02*
X105410000Y-98425000D01*
X81280000Y-91440000D02*
X81280000Y-73660000D01*
X106605000Y-98500000D02*
X106680000Y-98425000D01*
X105410000Y-98425000D02*
X107315000Y-98425000D01*
X106680000Y-98425000D02*
X107315000Y-98425000D01*
X106605000Y-98500000D02*
X106530000Y-98425000D01*
X88265000Y-98425000D02*
X81280000Y-91440000D01*
X99805000Y-130700000D02*
X100965000Y-129540000D01*
X107315000Y-98425000D02*
X109982000Y-98425000D01*
X71200000Y-130700000D02*
X85835000Y-130700000D01*
X113430000Y-95250000D02*
X90170000Y-95250000D01*
X83820000Y-88900000D02*
X90170000Y-95250000D01*
X85835000Y-130700000D02*
X90170000Y-126365000D01*
X113430000Y-95250000D02*
X115900000Y-97720000D01*
X90170000Y-126365000D02*
X90170000Y-102235000D01*
X83820000Y-73660000D02*
X83820000Y-88900000D01*
X115900000Y-97720000D02*
X115900000Y-98425000D01*
X75565000Y-67310000D02*
X95250000Y-67310000D01*
X123825000Y-94615000D02*
X132080000Y-94615000D01*
X101600000Y-82550000D02*
X106680000Y-87630000D01*
X71120000Y-73660000D02*
X71120000Y-71755000D01*
X106680000Y-87630000D02*
X116840000Y-87630000D01*
X71120000Y-71755000D02*
X75565000Y-67310000D01*
X95250000Y-67310000D02*
X101600000Y-73660000D01*
X101600000Y-73660000D02*
X101600000Y-82550000D01*
X116840000Y-87630000D02*
X123825000Y-94615000D01*
X96520000Y-71755000D02*
X93980000Y-69215000D01*
X93980000Y-69215000D02*
X76200000Y-69215000D01*
X76200000Y-69215000D02*
X73660000Y-71755000D01*
X104140000Y-92710000D02*
X114935000Y-92710000D01*
X96520000Y-73660000D02*
X96520000Y-85090000D01*
X125620000Y-110380000D02*
X130470000Y-110380000D01*
X120650000Y-105410000D02*
X125620000Y-110380000D01*
X120650000Y-98425000D02*
X120650000Y-105410000D01*
X96520000Y-85090000D02*
X104140000Y-92710000D01*
X96520000Y-73660000D02*
X96520000Y-71755000D01*
X114935000Y-92710000D02*
X120650000Y-98425000D01*
X73660000Y-71755000D02*
X73660000Y-73660000D01*
X153162000Y-92710000D02*
X153162000Y-91186000D01*
X99060000Y-73660000D02*
X99060000Y-83820000D01*
X105410000Y-90170000D02*
X116205000Y-90170000D01*
X179578000Y-109728000D02*
X176726000Y-112580000D01*
X153162000Y-91186000D02*
X154178000Y-90170000D01*
X179578000Y-94234000D02*
X179578000Y-109728000D01*
X148717000Y-97155000D02*
X153162000Y-92710000D01*
X94615000Y-88265000D02*
X86360000Y-88265000D01*
X154178000Y-90170000D02*
X175514000Y-90170000D01*
X116205000Y-90170000D02*
X123190000Y-97155000D01*
X123190000Y-97155000D02*
X148717000Y-97155000D01*
X176726000Y-112580000D02*
X176315000Y-112580000D01*
X99060000Y-83820000D02*
X105410000Y-90170000D01*
X175514000Y-90170000D02*
X179578000Y-94234000D01*
X96070000Y-132900000D02*
X104560000Y-132900000D01*
X92710000Y-129540000D02*
X96070000Y-132900000D01*
X92710000Y-104140000D02*
X92710000Y-129540000D01*
X140716000Y-135128000D02*
X153562000Y-135128000D01*
X153562000Y-135128000D02*
X155790000Y-132900000D01*
X155780000Y-109904000D02*
X140716000Y-124968000D01*
X155780000Y-92260000D02*
X155780000Y-109904000D01*
X135470000Y-112580000D02*
X137980000Y-112580000D01*
X140716000Y-115316000D02*
X140716000Y-119888000D01*
X137980000Y-112580000D02*
X140716000Y-115316000D01*
X160384000Y-110380000D02*
X140716000Y-130048000D01*
X171315000Y-110380000D02*
X160384000Y-110380000D01*
M02*
