%TF.GenerationSoftware,KiCad,Pcbnew,7.0.10*%
%TF.CreationDate,2024-02-09T22:35:13+09:00*%
%TF.ProjectId,game_pad,67616d65-5f70-4616-942e-6b696361645f,1*%
%TF.SameCoordinates,Original*%
%TF.FileFunction,Legend,Bot*%
%TF.FilePolarity,Positive*%
%FSLAX46Y46*%
G04 Gerber Fmt 4.6, Leading zero omitted, Abs format (unit mm)*
G04 Created by KiCad (PCBNEW 7.0.10) date 2024-02-09 22:35:13*
%MOMM*%
%LPD*%
G01*
G04 APERTURE LIST*
%ADD10C,0.150000*%
%ADD11C,0.120000*%
G04 APERTURE END LIST*
D10*
X94484819Y-77552779D02*
X93484819Y-77552779D01*
X93484819Y-77552779D02*
X94199104Y-77886112D01*
X94199104Y-77886112D02*
X93484819Y-78219445D01*
X93484819Y-78219445D02*
X94484819Y-78219445D01*
X94437200Y-78648017D02*
X94484819Y-78790874D01*
X94484819Y-78790874D02*
X94484819Y-79028969D01*
X94484819Y-79028969D02*
X94437200Y-79124207D01*
X94437200Y-79124207D02*
X94389580Y-79171826D01*
X94389580Y-79171826D02*
X94294342Y-79219445D01*
X94294342Y-79219445D02*
X94199104Y-79219445D01*
X94199104Y-79219445D02*
X94103866Y-79171826D01*
X94103866Y-79171826D02*
X94056247Y-79124207D01*
X94056247Y-79124207D02*
X94008628Y-79028969D01*
X94008628Y-79028969D02*
X93961009Y-78838493D01*
X93961009Y-78838493D02*
X93913390Y-78743255D01*
X93913390Y-78743255D02*
X93865771Y-78695636D01*
X93865771Y-78695636D02*
X93770533Y-78648017D01*
X93770533Y-78648017D02*
X93675295Y-78648017D01*
X93675295Y-78648017D02*
X93580057Y-78695636D01*
X93580057Y-78695636D02*
X93532438Y-78743255D01*
X93532438Y-78743255D02*
X93484819Y-78838493D01*
X93484819Y-78838493D02*
X93484819Y-79076588D01*
X93484819Y-79076588D02*
X93532438Y-79219445D01*
X93484819Y-79552779D02*
X94484819Y-80219445D01*
X93484819Y-80219445D02*
X94484819Y-79552779D01*
X93532438Y-81886112D02*
X93484819Y-81790874D01*
X93484819Y-81790874D02*
X93484819Y-81648017D01*
X93484819Y-81648017D02*
X93532438Y-81505160D01*
X93532438Y-81505160D02*
X93627676Y-81409922D01*
X93627676Y-81409922D02*
X93722914Y-81362303D01*
X93722914Y-81362303D02*
X93913390Y-81314684D01*
X93913390Y-81314684D02*
X94056247Y-81314684D01*
X94056247Y-81314684D02*
X94246723Y-81362303D01*
X94246723Y-81362303D02*
X94341961Y-81409922D01*
X94341961Y-81409922D02*
X94437200Y-81505160D01*
X94437200Y-81505160D02*
X94484819Y-81648017D01*
X94484819Y-81648017D02*
X94484819Y-81743255D01*
X94484819Y-81743255D02*
X94437200Y-81886112D01*
X94437200Y-81886112D02*
X94389580Y-81933731D01*
X94389580Y-81933731D02*
X94056247Y-81933731D01*
X94056247Y-81933731D02*
X94056247Y-81743255D01*
X94484819Y-82362303D02*
X93484819Y-82362303D01*
X93484819Y-82362303D02*
X94484819Y-82933731D01*
X94484819Y-82933731D02*
X93484819Y-82933731D01*
X94484819Y-83409922D02*
X93484819Y-83409922D01*
X93484819Y-83409922D02*
X93484819Y-83648017D01*
X93484819Y-83648017D02*
X93532438Y-83790874D01*
X93532438Y-83790874D02*
X93627676Y-83886112D01*
X93627676Y-83886112D02*
X93722914Y-83933731D01*
X93722914Y-83933731D02*
X93913390Y-83981350D01*
X93913390Y-83981350D02*
X94056247Y-83981350D01*
X94056247Y-83981350D02*
X94246723Y-83933731D01*
X94246723Y-83933731D02*
X94341961Y-83886112D01*
X94341961Y-83886112D02*
X94437200Y-83790874D01*
X94437200Y-83790874D02*
X94484819Y-83648017D01*
X94484819Y-83648017D02*
X94484819Y-83409922D01*
X94389580Y-85743255D02*
X94437200Y-85695636D01*
X94437200Y-85695636D02*
X94484819Y-85552779D01*
X94484819Y-85552779D02*
X94484819Y-85457541D01*
X94484819Y-85457541D02*
X94437200Y-85314684D01*
X94437200Y-85314684D02*
X94341961Y-85219446D01*
X94341961Y-85219446D02*
X94246723Y-85171827D01*
X94246723Y-85171827D02*
X94056247Y-85124208D01*
X94056247Y-85124208D02*
X93913390Y-85124208D01*
X93913390Y-85124208D02*
X93722914Y-85171827D01*
X93722914Y-85171827D02*
X93627676Y-85219446D01*
X93627676Y-85219446D02*
X93532438Y-85314684D01*
X93532438Y-85314684D02*
X93484819Y-85457541D01*
X93484819Y-85457541D02*
X93484819Y-85552779D01*
X93484819Y-85552779D02*
X93532438Y-85695636D01*
X93532438Y-85695636D02*
X93580057Y-85743255D01*
X94484819Y-86314684D02*
X94437200Y-86219446D01*
X94437200Y-86219446D02*
X94389580Y-86171827D01*
X94389580Y-86171827D02*
X94294342Y-86124208D01*
X94294342Y-86124208D02*
X94008628Y-86124208D01*
X94008628Y-86124208D02*
X93913390Y-86171827D01*
X93913390Y-86171827D02*
X93865771Y-86219446D01*
X93865771Y-86219446D02*
X93818152Y-86314684D01*
X93818152Y-86314684D02*
X93818152Y-86457541D01*
X93818152Y-86457541D02*
X93865771Y-86552779D01*
X93865771Y-86552779D02*
X93913390Y-86600398D01*
X93913390Y-86600398D02*
X94008628Y-86648017D01*
X94008628Y-86648017D02*
X94294342Y-86648017D01*
X94294342Y-86648017D02*
X94389580Y-86600398D01*
X94389580Y-86600398D02*
X94437200Y-86552779D01*
X94437200Y-86552779D02*
X94484819Y-86457541D01*
X94484819Y-86457541D02*
X94484819Y-86314684D01*
X93818152Y-87076589D02*
X94484819Y-87076589D01*
X93913390Y-87076589D02*
X93865771Y-87124208D01*
X93865771Y-87124208D02*
X93818152Y-87219446D01*
X93818152Y-87219446D02*
X93818152Y-87362303D01*
X93818152Y-87362303D02*
X93865771Y-87457541D01*
X93865771Y-87457541D02*
X93961009Y-87505160D01*
X93961009Y-87505160D02*
X94484819Y-87505160D01*
X93818152Y-87981351D02*
X94484819Y-87981351D01*
X93913390Y-87981351D02*
X93865771Y-88028970D01*
X93865771Y-88028970D02*
X93818152Y-88124208D01*
X93818152Y-88124208D02*
X93818152Y-88267065D01*
X93818152Y-88267065D02*
X93865771Y-88362303D01*
X93865771Y-88362303D02*
X93961009Y-88409922D01*
X93961009Y-88409922D02*
X94484819Y-88409922D01*
X94437200Y-89267065D02*
X94484819Y-89171827D01*
X94484819Y-89171827D02*
X94484819Y-88981351D01*
X94484819Y-88981351D02*
X94437200Y-88886113D01*
X94437200Y-88886113D02*
X94341961Y-88838494D01*
X94341961Y-88838494D02*
X93961009Y-88838494D01*
X93961009Y-88838494D02*
X93865771Y-88886113D01*
X93865771Y-88886113D02*
X93818152Y-88981351D01*
X93818152Y-88981351D02*
X93818152Y-89171827D01*
X93818152Y-89171827D02*
X93865771Y-89267065D01*
X93865771Y-89267065D02*
X93961009Y-89314684D01*
X93961009Y-89314684D02*
X94056247Y-89314684D01*
X94056247Y-89314684D02*
X94151485Y-88838494D01*
X94437200Y-90171827D02*
X94484819Y-90076589D01*
X94484819Y-90076589D02*
X94484819Y-89886113D01*
X94484819Y-89886113D02*
X94437200Y-89790875D01*
X94437200Y-89790875D02*
X94389580Y-89743256D01*
X94389580Y-89743256D02*
X94294342Y-89695637D01*
X94294342Y-89695637D02*
X94008628Y-89695637D01*
X94008628Y-89695637D02*
X93913390Y-89743256D01*
X93913390Y-89743256D02*
X93865771Y-89790875D01*
X93865771Y-89790875D02*
X93818152Y-89886113D01*
X93818152Y-89886113D02*
X93818152Y-90076589D01*
X93818152Y-90076589D02*
X93865771Y-90171827D01*
X93818152Y-90457542D02*
X93818152Y-90838494D01*
X93484819Y-90600399D02*
X94341961Y-90600399D01*
X94341961Y-90600399D02*
X94437200Y-90648018D01*
X94437200Y-90648018D02*
X94484819Y-90743256D01*
X94484819Y-90743256D02*
X94484819Y-90838494D01*
X98963220Y-114489819D02*
X98963220Y-113489819D01*
X98963220Y-113489819D02*
X98629887Y-114204104D01*
X98629887Y-114204104D02*
X98296554Y-113489819D01*
X98296554Y-113489819D02*
X98296554Y-114489819D01*
X97867982Y-114442200D02*
X97725125Y-114489819D01*
X97725125Y-114489819D02*
X97487030Y-114489819D01*
X97487030Y-114489819D02*
X97391792Y-114442200D01*
X97391792Y-114442200D02*
X97344173Y-114394580D01*
X97344173Y-114394580D02*
X97296554Y-114299342D01*
X97296554Y-114299342D02*
X97296554Y-114204104D01*
X97296554Y-114204104D02*
X97344173Y-114108866D01*
X97344173Y-114108866D02*
X97391792Y-114061247D01*
X97391792Y-114061247D02*
X97487030Y-114013628D01*
X97487030Y-114013628D02*
X97677506Y-113966009D01*
X97677506Y-113966009D02*
X97772744Y-113918390D01*
X97772744Y-113918390D02*
X97820363Y-113870771D01*
X97820363Y-113870771D02*
X97867982Y-113775533D01*
X97867982Y-113775533D02*
X97867982Y-113680295D01*
X97867982Y-113680295D02*
X97820363Y-113585057D01*
X97820363Y-113585057D02*
X97772744Y-113537438D01*
X97772744Y-113537438D02*
X97677506Y-113489819D01*
X97677506Y-113489819D02*
X97439411Y-113489819D01*
X97439411Y-113489819D02*
X97296554Y-113537438D01*
X96963220Y-113489819D02*
X96296554Y-114489819D01*
X96296554Y-113489819D02*
X96963220Y-114489819D01*
X95153696Y-114489819D02*
X95153696Y-113489819D01*
X95153696Y-113489819D02*
X94820363Y-114204104D01*
X94820363Y-114204104D02*
X94487030Y-113489819D01*
X94487030Y-113489819D02*
X94487030Y-114489819D01*
X93867982Y-114489819D02*
X93963220Y-114442200D01*
X93963220Y-114442200D02*
X94010839Y-114394580D01*
X94010839Y-114394580D02*
X94058458Y-114299342D01*
X94058458Y-114299342D02*
X94058458Y-114013628D01*
X94058458Y-114013628D02*
X94010839Y-113918390D01*
X94010839Y-113918390D02*
X93963220Y-113870771D01*
X93963220Y-113870771D02*
X93867982Y-113823152D01*
X93867982Y-113823152D02*
X93725125Y-113823152D01*
X93725125Y-113823152D02*
X93629887Y-113870771D01*
X93629887Y-113870771D02*
X93582268Y-113918390D01*
X93582268Y-113918390D02*
X93534649Y-114013628D01*
X93534649Y-114013628D02*
X93534649Y-114299342D01*
X93534649Y-114299342D02*
X93582268Y-114394580D01*
X93582268Y-114394580D02*
X93629887Y-114442200D01*
X93629887Y-114442200D02*
X93725125Y-114489819D01*
X93725125Y-114489819D02*
X93867982Y-114489819D01*
X92677506Y-114489819D02*
X92677506Y-113489819D01*
X92677506Y-114442200D02*
X92772744Y-114489819D01*
X92772744Y-114489819D02*
X92963220Y-114489819D01*
X92963220Y-114489819D02*
X93058458Y-114442200D01*
X93058458Y-114442200D02*
X93106077Y-114394580D01*
X93106077Y-114394580D02*
X93153696Y-114299342D01*
X93153696Y-114299342D02*
X93153696Y-114013628D01*
X93153696Y-114013628D02*
X93106077Y-113918390D01*
X93106077Y-113918390D02*
X93058458Y-113870771D01*
X93058458Y-113870771D02*
X92963220Y-113823152D01*
X92963220Y-113823152D02*
X92772744Y-113823152D01*
X92772744Y-113823152D02*
X92677506Y-113870771D01*
X91820363Y-114442200D02*
X91915601Y-114489819D01*
X91915601Y-114489819D02*
X92106077Y-114489819D01*
X92106077Y-114489819D02*
X92201315Y-114442200D01*
X92201315Y-114442200D02*
X92248934Y-114346961D01*
X92248934Y-114346961D02*
X92248934Y-113966009D01*
X92248934Y-113966009D02*
X92201315Y-113870771D01*
X92201315Y-113870771D02*
X92106077Y-113823152D01*
X92106077Y-113823152D02*
X91915601Y-113823152D01*
X91915601Y-113823152D02*
X91820363Y-113870771D01*
X91820363Y-113870771D02*
X91772744Y-113966009D01*
X91772744Y-113966009D02*
X91772744Y-114061247D01*
X91772744Y-114061247D02*
X92248934Y-114156485D01*
X72463220Y-114489819D02*
X72463220Y-113489819D01*
X72463220Y-113489819D02*
X72129887Y-114204104D01*
X72129887Y-114204104D02*
X71796554Y-113489819D01*
X71796554Y-113489819D02*
X71796554Y-114489819D01*
X70844173Y-113489819D02*
X71320363Y-113489819D01*
X71320363Y-113489819D02*
X71367982Y-113966009D01*
X71367982Y-113966009D02*
X71320363Y-113918390D01*
X71320363Y-113918390D02*
X71225125Y-113870771D01*
X71225125Y-113870771D02*
X70987030Y-113870771D01*
X70987030Y-113870771D02*
X70891792Y-113918390D01*
X70891792Y-113918390D02*
X70844173Y-113966009D01*
X70844173Y-113966009D02*
X70796554Y-114061247D01*
X70796554Y-114061247D02*
X70796554Y-114299342D01*
X70796554Y-114299342D02*
X70844173Y-114394580D01*
X70844173Y-114394580D02*
X70891792Y-114442200D01*
X70891792Y-114442200D02*
X70987030Y-114489819D01*
X70987030Y-114489819D02*
X71225125Y-114489819D01*
X71225125Y-114489819D02*
X71320363Y-114442200D01*
X71320363Y-114442200D02*
X71367982Y-114394580D01*
X69606077Y-114489819D02*
X69606077Y-113489819D01*
X69606077Y-113489819D02*
X69272744Y-114204104D01*
X69272744Y-114204104D02*
X68939411Y-113489819D01*
X68939411Y-113489819D02*
X68939411Y-114489819D01*
X68320363Y-114489819D02*
X68415601Y-114442200D01*
X68415601Y-114442200D02*
X68463220Y-114394580D01*
X68463220Y-114394580D02*
X68510839Y-114299342D01*
X68510839Y-114299342D02*
X68510839Y-114013628D01*
X68510839Y-114013628D02*
X68463220Y-113918390D01*
X68463220Y-113918390D02*
X68415601Y-113870771D01*
X68415601Y-113870771D02*
X68320363Y-113823152D01*
X68320363Y-113823152D02*
X68177506Y-113823152D01*
X68177506Y-113823152D02*
X68082268Y-113870771D01*
X68082268Y-113870771D02*
X68034649Y-113918390D01*
X68034649Y-113918390D02*
X67987030Y-114013628D01*
X67987030Y-114013628D02*
X67987030Y-114299342D01*
X67987030Y-114299342D02*
X68034649Y-114394580D01*
X68034649Y-114394580D02*
X68082268Y-114442200D01*
X68082268Y-114442200D02*
X68177506Y-114489819D01*
X68177506Y-114489819D02*
X68320363Y-114489819D01*
X67129887Y-114489819D02*
X67129887Y-113489819D01*
X67129887Y-114442200D02*
X67225125Y-114489819D01*
X67225125Y-114489819D02*
X67415601Y-114489819D01*
X67415601Y-114489819D02*
X67510839Y-114442200D01*
X67510839Y-114442200D02*
X67558458Y-114394580D01*
X67558458Y-114394580D02*
X67606077Y-114299342D01*
X67606077Y-114299342D02*
X67606077Y-114013628D01*
X67606077Y-114013628D02*
X67558458Y-113918390D01*
X67558458Y-113918390D02*
X67510839Y-113870771D01*
X67510839Y-113870771D02*
X67415601Y-113823152D01*
X67415601Y-113823152D02*
X67225125Y-113823152D01*
X67225125Y-113823152D02*
X67129887Y-113870771D01*
X66272744Y-114442200D02*
X66367982Y-114489819D01*
X66367982Y-114489819D02*
X66558458Y-114489819D01*
X66558458Y-114489819D02*
X66653696Y-114442200D01*
X66653696Y-114442200D02*
X66701315Y-114346961D01*
X66701315Y-114346961D02*
X66701315Y-113966009D01*
X66701315Y-113966009D02*
X66653696Y-113870771D01*
X66653696Y-113870771D02*
X66558458Y-113823152D01*
X66558458Y-113823152D02*
X66367982Y-113823152D01*
X66367982Y-113823152D02*
X66272744Y-113870771D01*
X66272744Y-113870771D02*
X66225125Y-113966009D01*
X66225125Y-113966009D02*
X66225125Y-114061247D01*
X66225125Y-114061247D02*
X66701315Y-114156485D01*
X88769819Y-77552779D02*
X87769819Y-77552779D01*
X87769819Y-77552779D02*
X88484104Y-77886112D01*
X88484104Y-77886112D02*
X87769819Y-78219445D01*
X87769819Y-78219445D02*
X88769819Y-78219445D01*
X88722200Y-78648017D02*
X88769819Y-78790874D01*
X88769819Y-78790874D02*
X88769819Y-79028969D01*
X88769819Y-79028969D02*
X88722200Y-79124207D01*
X88722200Y-79124207D02*
X88674580Y-79171826D01*
X88674580Y-79171826D02*
X88579342Y-79219445D01*
X88579342Y-79219445D02*
X88484104Y-79219445D01*
X88484104Y-79219445D02*
X88388866Y-79171826D01*
X88388866Y-79171826D02*
X88341247Y-79124207D01*
X88341247Y-79124207D02*
X88293628Y-79028969D01*
X88293628Y-79028969D02*
X88246009Y-78838493D01*
X88246009Y-78838493D02*
X88198390Y-78743255D01*
X88198390Y-78743255D02*
X88150771Y-78695636D01*
X88150771Y-78695636D02*
X88055533Y-78648017D01*
X88055533Y-78648017D02*
X87960295Y-78648017D01*
X87960295Y-78648017D02*
X87865057Y-78695636D01*
X87865057Y-78695636D02*
X87817438Y-78743255D01*
X87817438Y-78743255D02*
X87769819Y-78838493D01*
X87769819Y-78838493D02*
X87769819Y-79076588D01*
X87769819Y-79076588D02*
X87817438Y-79219445D01*
X87769819Y-79552779D02*
X88769819Y-80219445D01*
X87769819Y-80219445D02*
X88769819Y-79552779D01*
X88769819Y-81362303D02*
X87769819Y-81362303D01*
X87769819Y-81362303D02*
X88769819Y-81933731D01*
X88769819Y-81933731D02*
X87769819Y-81933731D01*
X88769819Y-82552779D02*
X88722200Y-82457541D01*
X88722200Y-82457541D02*
X88674580Y-82409922D01*
X88674580Y-82409922D02*
X88579342Y-82362303D01*
X88579342Y-82362303D02*
X88293628Y-82362303D01*
X88293628Y-82362303D02*
X88198390Y-82409922D01*
X88198390Y-82409922D02*
X88150771Y-82457541D01*
X88150771Y-82457541D02*
X88103152Y-82552779D01*
X88103152Y-82552779D02*
X88103152Y-82695636D01*
X88103152Y-82695636D02*
X88150771Y-82790874D01*
X88150771Y-82790874D02*
X88198390Y-82838493D01*
X88198390Y-82838493D02*
X88293628Y-82886112D01*
X88293628Y-82886112D02*
X88579342Y-82886112D01*
X88579342Y-82886112D02*
X88674580Y-82838493D01*
X88674580Y-82838493D02*
X88722200Y-82790874D01*
X88722200Y-82790874D02*
X88769819Y-82695636D01*
X88769819Y-82695636D02*
X88769819Y-82552779D01*
X88769819Y-83314684D02*
X88103152Y-83314684D01*
X88293628Y-83314684D02*
X88198390Y-83362303D01*
X88198390Y-83362303D02*
X88150771Y-83409922D01*
X88150771Y-83409922D02*
X88103152Y-83505160D01*
X88103152Y-83505160D02*
X88103152Y-83600398D01*
X88769819Y-83933732D02*
X88103152Y-83933732D01*
X88198390Y-83933732D02*
X88150771Y-83981351D01*
X88150771Y-83981351D02*
X88103152Y-84076589D01*
X88103152Y-84076589D02*
X88103152Y-84219446D01*
X88103152Y-84219446D02*
X88150771Y-84314684D01*
X88150771Y-84314684D02*
X88246009Y-84362303D01*
X88246009Y-84362303D02*
X88769819Y-84362303D01*
X88246009Y-84362303D02*
X88150771Y-84409922D01*
X88150771Y-84409922D02*
X88103152Y-84505160D01*
X88103152Y-84505160D02*
X88103152Y-84648017D01*
X88103152Y-84648017D02*
X88150771Y-84743256D01*
X88150771Y-84743256D02*
X88246009Y-84790875D01*
X88246009Y-84790875D02*
X88769819Y-84790875D01*
X88769819Y-85695636D02*
X88246009Y-85695636D01*
X88246009Y-85695636D02*
X88150771Y-85648017D01*
X88150771Y-85648017D02*
X88103152Y-85552779D01*
X88103152Y-85552779D02*
X88103152Y-85362303D01*
X88103152Y-85362303D02*
X88150771Y-85267065D01*
X88722200Y-85695636D02*
X88769819Y-85600398D01*
X88769819Y-85600398D02*
X88769819Y-85362303D01*
X88769819Y-85362303D02*
X88722200Y-85267065D01*
X88722200Y-85267065D02*
X88626961Y-85219446D01*
X88626961Y-85219446D02*
X88531723Y-85219446D01*
X88531723Y-85219446D02*
X88436485Y-85267065D01*
X88436485Y-85267065D02*
X88388866Y-85362303D01*
X88388866Y-85362303D02*
X88388866Y-85600398D01*
X88388866Y-85600398D02*
X88341247Y-85695636D01*
X88769819Y-86314684D02*
X88722200Y-86219446D01*
X88722200Y-86219446D02*
X88626961Y-86171827D01*
X88626961Y-86171827D02*
X87769819Y-86171827D01*
X72463220Y-106989819D02*
X72463220Y-105989819D01*
X72463220Y-105989819D02*
X72129887Y-106704104D01*
X72129887Y-106704104D02*
X71796554Y-105989819D01*
X71796554Y-105989819D02*
X71796554Y-106989819D01*
X70844173Y-105989819D02*
X71320363Y-105989819D01*
X71320363Y-105989819D02*
X71367982Y-106466009D01*
X71367982Y-106466009D02*
X71320363Y-106418390D01*
X71320363Y-106418390D02*
X71225125Y-106370771D01*
X71225125Y-106370771D02*
X70987030Y-106370771D01*
X70987030Y-106370771D02*
X70891792Y-106418390D01*
X70891792Y-106418390D02*
X70844173Y-106466009D01*
X70844173Y-106466009D02*
X70796554Y-106561247D01*
X70796554Y-106561247D02*
X70796554Y-106799342D01*
X70796554Y-106799342D02*
X70844173Y-106894580D01*
X70844173Y-106894580D02*
X70891792Y-106942200D01*
X70891792Y-106942200D02*
X70987030Y-106989819D01*
X70987030Y-106989819D02*
X71225125Y-106989819D01*
X71225125Y-106989819D02*
X71320363Y-106942200D01*
X71320363Y-106942200D02*
X71367982Y-106894580D01*
X69606077Y-106989819D02*
X69606077Y-105989819D01*
X69606077Y-105989819D02*
X69272744Y-106704104D01*
X69272744Y-106704104D02*
X68939411Y-105989819D01*
X68939411Y-105989819D02*
X68939411Y-106989819D01*
X68320363Y-106989819D02*
X68415601Y-106942200D01*
X68415601Y-106942200D02*
X68463220Y-106894580D01*
X68463220Y-106894580D02*
X68510839Y-106799342D01*
X68510839Y-106799342D02*
X68510839Y-106513628D01*
X68510839Y-106513628D02*
X68463220Y-106418390D01*
X68463220Y-106418390D02*
X68415601Y-106370771D01*
X68415601Y-106370771D02*
X68320363Y-106323152D01*
X68320363Y-106323152D02*
X68177506Y-106323152D01*
X68177506Y-106323152D02*
X68082268Y-106370771D01*
X68082268Y-106370771D02*
X68034649Y-106418390D01*
X68034649Y-106418390D02*
X67987030Y-106513628D01*
X67987030Y-106513628D02*
X67987030Y-106799342D01*
X67987030Y-106799342D02*
X68034649Y-106894580D01*
X68034649Y-106894580D02*
X68082268Y-106942200D01*
X68082268Y-106942200D02*
X68177506Y-106989819D01*
X68177506Y-106989819D02*
X68320363Y-106989819D01*
X67129887Y-106989819D02*
X67129887Y-105989819D01*
X67129887Y-106942200D02*
X67225125Y-106989819D01*
X67225125Y-106989819D02*
X67415601Y-106989819D01*
X67415601Y-106989819D02*
X67510839Y-106942200D01*
X67510839Y-106942200D02*
X67558458Y-106894580D01*
X67558458Y-106894580D02*
X67606077Y-106799342D01*
X67606077Y-106799342D02*
X67606077Y-106513628D01*
X67606077Y-106513628D02*
X67558458Y-106418390D01*
X67558458Y-106418390D02*
X67510839Y-106370771D01*
X67510839Y-106370771D02*
X67415601Y-106323152D01*
X67415601Y-106323152D02*
X67225125Y-106323152D01*
X67225125Y-106323152D02*
X67129887Y-106370771D01*
X66272744Y-106942200D02*
X66367982Y-106989819D01*
X66367982Y-106989819D02*
X66558458Y-106989819D01*
X66558458Y-106989819D02*
X66653696Y-106942200D01*
X66653696Y-106942200D02*
X66701315Y-106846961D01*
X66701315Y-106846961D02*
X66701315Y-106466009D01*
X66701315Y-106466009D02*
X66653696Y-106370771D01*
X66653696Y-106370771D02*
X66558458Y-106323152D01*
X66558458Y-106323152D02*
X66367982Y-106323152D01*
X66367982Y-106323152D02*
X66272744Y-106370771D01*
X66272744Y-106370771D02*
X66225125Y-106466009D01*
X66225125Y-106466009D02*
X66225125Y-106561247D01*
X66225125Y-106561247D02*
X66701315Y-106656485D01*
X98963220Y-106989819D02*
X98963220Y-105989819D01*
X98963220Y-105989819D02*
X98629887Y-106704104D01*
X98629887Y-106704104D02*
X98296554Y-105989819D01*
X98296554Y-105989819D02*
X98296554Y-106989819D01*
X97867982Y-106942200D02*
X97725125Y-106989819D01*
X97725125Y-106989819D02*
X97487030Y-106989819D01*
X97487030Y-106989819D02*
X97391792Y-106942200D01*
X97391792Y-106942200D02*
X97344173Y-106894580D01*
X97344173Y-106894580D02*
X97296554Y-106799342D01*
X97296554Y-106799342D02*
X97296554Y-106704104D01*
X97296554Y-106704104D02*
X97344173Y-106608866D01*
X97344173Y-106608866D02*
X97391792Y-106561247D01*
X97391792Y-106561247D02*
X97487030Y-106513628D01*
X97487030Y-106513628D02*
X97677506Y-106466009D01*
X97677506Y-106466009D02*
X97772744Y-106418390D01*
X97772744Y-106418390D02*
X97820363Y-106370771D01*
X97820363Y-106370771D02*
X97867982Y-106275533D01*
X97867982Y-106275533D02*
X97867982Y-106180295D01*
X97867982Y-106180295D02*
X97820363Y-106085057D01*
X97820363Y-106085057D02*
X97772744Y-106037438D01*
X97772744Y-106037438D02*
X97677506Y-105989819D01*
X97677506Y-105989819D02*
X97439411Y-105989819D01*
X97439411Y-105989819D02*
X97296554Y-106037438D01*
X96963220Y-105989819D02*
X96296554Y-106989819D01*
X96296554Y-105989819D02*
X96963220Y-106989819D01*
X95153696Y-106989819D02*
X95153696Y-105989819D01*
X95153696Y-105989819D02*
X94820363Y-106704104D01*
X94820363Y-106704104D02*
X94487030Y-105989819D01*
X94487030Y-105989819D02*
X94487030Y-106989819D01*
X93867982Y-106989819D02*
X93963220Y-106942200D01*
X93963220Y-106942200D02*
X94010839Y-106894580D01*
X94010839Y-106894580D02*
X94058458Y-106799342D01*
X94058458Y-106799342D02*
X94058458Y-106513628D01*
X94058458Y-106513628D02*
X94010839Y-106418390D01*
X94010839Y-106418390D02*
X93963220Y-106370771D01*
X93963220Y-106370771D02*
X93867982Y-106323152D01*
X93867982Y-106323152D02*
X93725125Y-106323152D01*
X93725125Y-106323152D02*
X93629887Y-106370771D01*
X93629887Y-106370771D02*
X93582268Y-106418390D01*
X93582268Y-106418390D02*
X93534649Y-106513628D01*
X93534649Y-106513628D02*
X93534649Y-106799342D01*
X93534649Y-106799342D02*
X93582268Y-106894580D01*
X93582268Y-106894580D02*
X93629887Y-106942200D01*
X93629887Y-106942200D02*
X93725125Y-106989819D01*
X93725125Y-106989819D02*
X93867982Y-106989819D01*
X92677506Y-106989819D02*
X92677506Y-105989819D01*
X92677506Y-106942200D02*
X92772744Y-106989819D01*
X92772744Y-106989819D02*
X92963220Y-106989819D01*
X92963220Y-106989819D02*
X93058458Y-106942200D01*
X93058458Y-106942200D02*
X93106077Y-106894580D01*
X93106077Y-106894580D02*
X93153696Y-106799342D01*
X93153696Y-106799342D02*
X93153696Y-106513628D01*
X93153696Y-106513628D02*
X93106077Y-106418390D01*
X93106077Y-106418390D02*
X93058458Y-106370771D01*
X93058458Y-106370771D02*
X92963220Y-106323152D01*
X92963220Y-106323152D02*
X92772744Y-106323152D01*
X92772744Y-106323152D02*
X92677506Y-106370771D01*
X91820363Y-106942200D02*
X91915601Y-106989819D01*
X91915601Y-106989819D02*
X92106077Y-106989819D01*
X92106077Y-106989819D02*
X92201315Y-106942200D01*
X92201315Y-106942200D02*
X92248934Y-106846961D01*
X92248934Y-106846961D02*
X92248934Y-106466009D01*
X92248934Y-106466009D02*
X92201315Y-106370771D01*
X92201315Y-106370771D02*
X92106077Y-106323152D01*
X92106077Y-106323152D02*
X91915601Y-106323152D01*
X91915601Y-106323152D02*
X91820363Y-106370771D01*
X91820363Y-106370771D02*
X91772744Y-106466009D01*
X91772744Y-106466009D02*
X91772744Y-106561247D01*
X91772744Y-106561247D02*
X92248934Y-106656485D01*
X83999819Y-81716666D02*
X84714104Y-81716666D01*
X84714104Y-81716666D02*
X84856961Y-81669047D01*
X84856961Y-81669047D02*
X84952200Y-81573809D01*
X84952200Y-81573809D02*
X84999819Y-81430952D01*
X84999819Y-81430952D02*
X84999819Y-81335714D01*
X84999819Y-82192857D02*
X83999819Y-82192857D01*
X83999819Y-82192857D02*
X83999819Y-82573809D01*
X83999819Y-82573809D02*
X84047438Y-82669047D01*
X84047438Y-82669047D02*
X84095057Y-82716666D01*
X84095057Y-82716666D02*
X84190295Y-82764285D01*
X84190295Y-82764285D02*
X84333152Y-82764285D01*
X84333152Y-82764285D02*
X84428390Y-82716666D01*
X84428390Y-82716666D02*
X84476009Y-82669047D01*
X84476009Y-82669047D02*
X84523628Y-82573809D01*
X84523628Y-82573809D02*
X84523628Y-82192857D01*
X83999819Y-83621428D02*
X83999819Y-83430952D01*
X83999819Y-83430952D02*
X84047438Y-83335714D01*
X84047438Y-83335714D02*
X84095057Y-83288095D01*
X84095057Y-83288095D02*
X84237914Y-83192857D01*
X84237914Y-83192857D02*
X84428390Y-83145238D01*
X84428390Y-83145238D02*
X84809342Y-83145238D01*
X84809342Y-83145238D02*
X84904580Y-83192857D01*
X84904580Y-83192857D02*
X84952200Y-83240476D01*
X84952200Y-83240476D02*
X84999819Y-83335714D01*
X84999819Y-83335714D02*
X84999819Y-83526190D01*
X84999819Y-83526190D02*
X84952200Y-83621428D01*
X84952200Y-83621428D02*
X84904580Y-83669047D01*
X84904580Y-83669047D02*
X84809342Y-83716666D01*
X84809342Y-83716666D02*
X84571247Y-83716666D01*
X84571247Y-83716666D02*
X84476009Y-83669047D01*
X84476009Y-83669047D02*
X84428390Y-83621428D01*
X84428390Y-83621428D02*
X84380771Y-83526190D01*
X84380771Y-83526190D02*
X84380771Y-83335714D01*
X84380771Y-83335714D02*
X84428390Y-83240476D01*
X84428390Y-83240476D02*
X84476009Y-83192857D01*
X84476009Y-83192857D02*
X84571247Y-83145238D01*
X70063333Y-101794819D02*
X70063333Y-102509104D01*
X70063333Y-102509104D02*
X70110952Y-102651961D01*
X70110952Y-102651961D02*
X70206190Y-102747200D01*
X70206190Y-102747200D02*
X70349047Y-102794819D01*
X70349047Y-102794819D02*
X70444285Y-102794819D01*
X69587142Y-102794819D02*
X69587142Y-101794819D01*
X69587142Y-101794819D02*
X69206190Y-101794819D01*
X69206190Y-101794819D02*
X69110952Y-101842438D01*
X69110952Y-101842438D02*
X69063333Y-101890057D01*
X69063333Y-101890057D02*
X69015714Y-101985295D01*
X69015714Y-101985295D02*
X69015714Y-102128152D01*
X69015714Y-102128152D02*
X69063333Y-102223390D01*
X69063333Y-102223390D02*
X69110952Y-102271009D01*
X69110952Y-102271009D02*
X69206190Y-102318628D01*
X69206190Y-102318628D02*
X69587142Y-102318628D01*
X68682380Y-101794819D02*
X68063333Y-101794819D01*
X68063333Y-101794819D02*
X68396666Y-102175771D01*
X68396666Y-102175771D02*
X68253809Y-102175771D01*
X68253809Y-102175771D02*
X68158571Y-102223390D01*
X68158571Y-102223390D02*
X68110952Y-102271009D01*
X68110952Y-102271009D02*
X68063333Y-102366247D01*
X68063333Y-102366247D02*
X68063333Y-102604342D01*
X68063333Y-102604342D02*
X68110952Y-102699580D01*
X68110952Y-102699580D02*
X68158571Y-102747200D01*
X68158571Y-102747200D02*
X68253809Y-102794819D01*
X68253809Y-102794819D02*
X68539523Y-102794819D01*
X68539523Y-102794819D02*
X68634761Y-102747200D01*
X68634761Y-102747200D02*
X68682380Y-102699580D01*
X96733333Y-101794819D02*
X96733333Y-102509104D01*
X96733333Y-102509104D02*
X96780952Y-102651961D01*
X96780952Y-102651961D02*
X96876190Y-102747200D01*
X96876190Y-102747200D02*
X97019047Y-102794819D01*
X97019047Y-102794819D02*
X97114285Y-102794819D01*
X96257142Y-102794819D02*
X96257142Y-101794819D01*
X96257142Y-101794819D02*
X95876190Y-101794819D01*
X95876190Y-101794819D02*
X95780952Y-101842438D01*
X95780952Y-101842438D02*
X95733333Y-101890057D01*
X95733333Y-101890057D02*
X95685714Y-101985295D01*
X95685714Y-101985295D02*
X95685714Y-102128152D01*
X95685714Y-102128152D02*
X95733333Y-102223390D01*
X95733333Y-102223390D02*
X95780952Y-102271009D01*
X95780952Y-102271009D02*
X95876190Y-102318628D01*
X95876190Y-102318628D02*
X96257142Y-102318628D01*
X94733333Y-102794819D02*
X95304761Y-102794819D01*
X95019047Y-102794819D02*
X95019047Y-101794819D01*
X95019047Y-101794819D02*
X95114285Y-101937676D01*
X95114285Y-101937676D02*
X95209523Y-102032914D01*
X95209523Y-102032914D02*
X95304761Y-102080533D01*
X89729819Y-81701666D02*
X90444104Y-81701666D01*
X90444104Y-81701666D02*
X90586961Y-81654047D01*
X90586961Y-81654047D02*
X90682200Y-81558809D01*
X90682200Y-81558809D02*
X90729819Y-81415952D01*
X90729819Y-81415952D02*
X90729819Y-81320714D01*
X90729819Y-82177857D02*
X89729819Y-82177857D01*
X89729819Y-82177857D02*
X89729819Y-82558809D01*
X89729819Y-82558809D02*
X89777438Y-82654047D01*
X89777438Y-82654047D02*
X89825057Y-82701666D01*
X89825057Y-82701666D02*
X89920295Y-82749285D01*
X89920295Y-82749285D02*
X90063152Y-82749285D01*
X90063152Y-82749285D02*
X90158390Y-82701666D01*
X90158390Y-82701666D02*
X90206009Y-82654047D01*
X90206009Y-82654047D02*
X90253628Y-82558809D01*
X90253628Y-82558809D02*
X90253628Y-82177857D01*
X89729819Y-83654047D02*
X89729819Y-83177857D01*
X89729819Y-83177857D02*
X90206009Y-83130238D01*
X90206009Y-83130238D02*
X90158390Y-83177857D01*
X90158390Y-83177857D02*
X90110771Y-83273095D01*
X90110771Y-83273095D02*
X90110771Y-83511190D01*
X90110771Y-83511190D02*
X90158390Y-83606428D01*
X90158390Y-83606428D02*
X90206009Y-83654047D01*
X90206009Y-83654047D02*
X90301247Y-83701666D01*
X90301247Y-83701666D02*
X90539342Y-83701666D01*
X90539342Y-83701666D02*
X90634580Y-83654047D01*
X90634580Y-83654047D02*
X90682200Y-83606428D01*
X90682200Y-83606428D02*
X90729819Y-83511190D01*
X90729819Y-83511190D02*
X90729819Y-83273095D01*
X90729819Y-83273095D02*
X90682200Y-83177857D01*
X90682200Y-83177857D02*
X90634580Y-83130238D01*
X96733333Y-109414819D02*
X96733333Y-110129104D01*
X96733333Y-110129104D02*
X96780952Y-110271961D01*
X96780952Y-110271961D02*
X96876190Y-110367200D01*
X96876190Y-110367200D02*
X97019047Y-110414819D01*
X97019047Y-110414819D02*
X97114285Y-110414819D01*
X96257142Y-110414819D02*
X96257142Y-109414819D01*
X96257142Y-109414819D02*
X95876190Y-109414819D01*
X95876190Y-109414819D02*
X95780952Y-109462438D01*
X95780952Y-109462438D02*
X95733333Y-109510057D01*
X95733333Y-109510057D02*
X95685714Y-109605295D01*
X95685714Y-109605295D02*
X95685714Y-109748152D01*
X95685714Y-109748152D02*
X95733333Y-109843390D01*
X95733333Y-109843390D02*
X95780952Y-109891009D01*
X95780952Y-109891009D02*
X95876190Y-109938628D01*
X95876190Y-109938628D02*
X96257142Y-109938628D01*
X95304761Y-109510057D02*
X95257142Y-109462438D01*
X95257142Y-109462438D02*
X95161904Y-109414819D01*
X95161904Y-109414819D02*
X94923809Y-109414819D01*
X94923809Y-109414819D02*
X94828571Y-109462438D01*
X94828571Y-109462438D02*
X94780952Y-109510057D01*
X94780952Y-109510057D02*
X94733333Y-109605295D01*
X94733333Y-109605295D02*
X94733333Y-109700533D01*
X94733333Y-109700533D02*
X94780952Y-109843390D01*
X94780952Y-109843390D02*
X95352380Y-110414819D01*
X95352380Y-110414819D02*
X94733333Y-110414819D01*
X70063333Y-109414819D02*
X70063333Y-110129104D01*
X70063333Y-110129104D02*
X70110952Y-110271961D01*
X70110952Y-110271961D02*
X70206190Y-110367200D01*
X70206190Y-110367200D02*
X70349047Y-110414819D01*
X70349047Y-110414819D02*
X70444285Y-110414819D01*
X69587142Y-110414819D02*
X69587142Y-109414819D01*
X69587142Y-109414819D02*
X69206190Y-109414819D01*
X69206190Y-109414819D02*
X69110952Y-109462438D01*
X69110952Y-109462438D02*
X69063333Y-109510057D01*
X69063333Y-109510057D02*
X69015714Y-109605295D01*
X69015714Y-109605295D02*
X69015714Y-109748152D01*
X69015714Y-109748152D02*
X69063333Y-109843390D01*
X69063333Y-109843390D02*
X69110952Y-109891009D01*
X69110952Y-109891009D02*
X69206190Y-109938628D01*
X69206190Y-109938628D02*
X69587142Y-109938628D01*
X68158571Y-109748152D02*
X68158571Y-110414819D01*
X68396666Y-109367200D02*
X68634761Y-110081485D01*
X68634761Y-110081485D02*
X68015714Y-110081485D01*
D11*
%TO.C,JP6*%
X86645000Y-81150000D02*
X86045000Y-81150000D01*
X85345000Y-81850000D02*
X85345000Y-83250000D01*
X87345000Y-83250000D02*
X87345000Y-81850000D01*
X86045000Y-83950000D02*
X86645000Y-83950000D01*
X87345000Y-81850000D02*
G75*
G03*
X86645000Y-81150000I-699999J1D01*
G01*
X86045000Y-81150000D02*
G75*
G03*
X85345000Y-81850000I-1J-699999D01*
G01*
X86645000Y-83950000D02*
G75*
G03*
X87345000Y-83250000I0J700000D01*
G01*
X85345000Y-83250000D02*
G75*
G03*
X86045000Y-83950000I700000J0D01*
G01*
%TO.C,JP3*%
X70630000Y-104440000D02*
X70630000Y-103840000D01*
X69930000Y-103140000D02*
X68530000Y-103140000D01*
X68530000Y-105140000D02*
X69930000Y-105140000D01*
X67830000Y-103840000D02*
X67830000Y-104440000D01*
X69930000Y-105140000D02*
G75*
G03*
X70630000Y-104440000I1J699999D01*
G01*
X70630000Y-103840000D02*
G75*
G03*
X69930000Y-103140000I-699999J1D01*
G01*
X67830000Y-104440000D02*
G75*
G03*
X68530000Y-105140000I700000J0D01*
G01*
X68530000Y-103140000D02*
G75*
G03*
X67830000Y-103840000I0J-700000D01*
G01*
%TO.C,JP1*%
X97300000Y-104440000D02*
X97300000Y-103840000D01*
X96600000Y-103140000D02*
X95200000Y-103140000D01*
X95200000Y-105140000D02*
X96600000Y-105140000D01*
X94500000Y-103840000D02*
X94500000Y-104440000D01*
X96600000Y-105140000D02*
G75*
G03*
X97300000Y-104440000I1J699999D01*
G01*
X97300000Y-103840000D02*
G75*
G03*
X96600000Y-103140000I-699999J1D01*
G01*
X94500000Y-104440000D02*
G75*
G03*
X95200000Y-105140000I700000J0D01*
G01*
X95200000Y-103140000D02*
G75*
G03*
X94500000Y-103840000I0J-700000D01*
G01*
%TO.C,JP5*%
X92375000Y-81135000D02*
X91775000Y-81135000D01*
X91075000Y-81835000D02*
X91075000Y-83235000D01*
X93075000Y-83235000D02*
X93075000Y-81835000D01*
X91775000Y-83935000D02*
X92375000Y-83935000D01*
X93075000Y-81835000D02*
G75*
G03*
X92375000Y-81135000I-699999J1D01*
G01*
X91775000Y-81135000D02*
G75*
G03*
X91075000Y-81835000I-1J-699999D01*
G01*
X92375000Y-83935000D02*
G75*
G03*
X93075000Y-83235000I0J700000D01*
G01*
X91075000Y-83235000D02*
G75*
G03*
X91775000Y-83935000I700000J0D01*
G01*
%TO.C,JP2*%
X97300000Y-112060000D02*
X97300000Y-111460000D01*
X96600000Y-110760000D02*
X95200000Y-110760000D01*
X95200000Y-112760000D02*
X96600000Y-112760000D01*
X94500000Y-111460000D02*
X94500000Y-112060000D01*
X96600000Y-112760000D02*
G75*
G03*
X97300000Y-112060000I1J699999D01*
G01*
X97300000Y-111460000D02*
G75*
G03*
X96600000Y-110760000I-699999J1D01*
G01*
X94500000Y-112060000D02*
G75*
G03*
X95200000Y-112760000I700000J0D01*
G01*
X95200000Y-110760000D02*
G75*
G03*
X94500000Y-111460000I0J-700000D01*
G01*
%TO.C,JP4*%
X70630000Y-112060000D02*
X70630000Y-111460000D01*
X69930000Y-110760000D02*
X68530000Y-110760000D01*
X68530000Y-112760000D02*
X69930000Y-112760000D01*
X67830000Y-111460000D02*
X67830000Y-112060000D01*
X69930000Y-112760000D02*
G75*
G03*
X70630000Y-112060000I1J699999D01*
G01*
X70630000Y-111460000D02*
G75*
G03*
X69930000Y-110760000I-699999J1D01*
G01*
X67830000Y-112060000D02*
G75*
G03*
X68530000Y-112760000I700000J0D01*
G01*
X68530000Y-110760000D02*
G75*
G03*
X67830000Y-111460000I0J-700000D01*
G01*
%TD*%
M02*
