%TF.GenerationSoftware,KiCad,Pcbnew,7.0.10*%
%TF.CreationDate,2024-02-09T22:35:13+09:00*%
%TF.ProjectId,game_pad,67616d65-5f70-4616-942e-6b696361645f,1*%
%TF.SameCoordinates,Original*%
%TF.FileFunction,Copper,L1,Top*%
%TF.FilePolarity,Positive*%
%FSLAX46Y46*%
G04 Gerber Fmt 4.6, Leading zero omitted, Abs format (unit mm)*
G04 Created by KiCad (PCBNEW 7.0.10) date 2024-02-09 22:35:13*
%MOMM*%
%LPD*%
G01*
G04 APERTURE LIST*
%TA.AperFunction,ComponentPad*%
%ADD10O,1.600000X1.200000*%
%TD*%
%TA.AperFunction,ComponentPad*%
%ADD11R,1.700000X1.700000*%
%TD*%
%TA.AperFunction,ComponentPad*%
%ADD12O,1.700000X1.700000*%
%TD*%
%TA.AperFunction,ComponentPad*%
%ADD13R,2.200000X2.200000*%
%TD*%
%TA.AperFunction,ComponentPad*%
%ADD14O,2.200000X2.200000*%
%TD*%
%TA.AperFunction,ViaPad*%
%ADD15C,0.800000*%
%TD*%
%TA.AperFunction,Conductor*%
%ADD16C,0.600000*%
%TD*%
G04 APERTURE END LIST*
D10*
%TO.P,SW6,1,1*%
%TO.N,Net-(J1-Pin_2)*%
X150790000Y-130700000D03*
%TO.P,SW6,2,2*%
%TO.N,Net-(J2-Pin_5)*%
X155790000Y-132900000D03*
%TD*%
D11*
%TO.P,J2,1,Pin_1*%
%TO.N,/UP*%
X93980000Y-73660000D03*
D12*
%TO.P,J2,2,Pin_2*%
%TO.N,Net-(J1-Pin_3)*%
X96520000Y-73660000D03*
%TO.P,J2,3,Pin_3*%
%TO.N,/RIGHT*%
X99060000Y-73660000D03*
%TO.P,J2,4,Pin_4*%
%TO.N,Net-(J1-Pin_2)*%
X101600000Y-73660000D03*
%TO.P,J2,5,Pin_5*%
%TO.N,Net-(J2-Pin_5)*%
X104140000Y-73660000D03*
%TO.P,J2,6,Pin_6*%
%TO.N,Net-(D1-K)*%
X106680000Y-73660000D03*
%TD*%
D10*
%TO.P,SW5,1,1*%
%TO.N,Net-(J2-Pin_5)*%
X171315000Y-110380000D03*
%TO.P,SW5,2,2*%
%TO.N,/RIGHT*%
X176315000Y-112580000D03*
%TD*%
D13*
%TO.P,D1,1,K*%
%TO.N,Net-(D1-K)*%
X109982000Y-108585000D03*
D14*
%TO.P,D1,2,A*%
%TO.N,/A_BUTTON*%
X109982000Y-98425000D03*
%TD*%
D10*
%TO.P,SW1,1,1*%
%TO.N,/B_BUTTON*%
X71200000Y-130700000D03*
%TO.P,SW1,2,2*%
%TO.N,Net-(JP2-B)*%
X76200000Y-132900000D03*
%TD*%
D13*
%TO.P,D2,1,K*%
%TO.N,Net-(D1-K)*%
X116205000Y-108585000D03*
D14*
%TO.P,D2,2,A*%
%TO.N,/B_BUTTON*%
X116205000Y-98425000D03*
%TD*%
D10*
%TO.P,SW4,1,1*%
%TO.N,Net-(J1-Pin_3)*%
X130470000Y-110380000D03*
%TO.P,SW4,2,2*%
%TO.N,Net-(J2-Pin_5)*%
X135470000Y-112580000D03*
%TD*%
%TO.P,SW3,1,1*%
%TO.N,/UP*%
X150780000Y-90060000D03*
%TO.P,SW3,2,2*%
%TO.N,Net-(J2-Pin_5)*%
X155780000Y-92260000D03*
%TD*%
D11*
%TO.P,J1,1,Pin_1*%
%TO.N,/UP*%
X68580000Y-73660000D03*
D12*
%TO.P,J1,2,Pin_2*%
%TO.N,Net-(J1-Pin_2)*%
X71120000Y-73660000D03*
%TO.P,J1,3,Pin_3*%
%TO.N,Net-(J1-Pin_3)*%
X73660000Y-73660000D03*
%TO.P,J1,4,Pin_4*%
%TO.N,/RIGHT*%
X76200000Y-73660000D03*
%TO.P,J1,5,Pin_5*%
%TO.N,unconnected-(J1-Pin_5-Pad5)*%
X78740000Y-73660000D03*
%TO.P,J1,6,Pin_6*%
%TO.N,/A_BUTTON*%
X81280000Y-73660000D03*
%TO.P,J1,7,Pin_7*%
%TO.N,/B_BUTTON*%
X83820000Y-73660000D03*
%TO.P,J1,8,Pin_8*%
%TO.N,Net-(J1-Pin_8)*%
X86360000Y-73660000D03*
%TO.P,J1,9,Pin_9*%
%TO.N,Net-(J1-Pin_9)*%
X88900000Y-73660000D03*
%TD*%
D10*
%TO.P,SW2,1,1*%
%TO.N,/A_BUTTON*%
X99560000Y-130700000D03*
%TO.P,SW2,2,2*%
%TO.N,Net-(JP1-B)*%
X104560000Y-132900000D03*
%TD*%
D15*
%TO.N,/B_BUTTON*%
X90170000Y-95250000D03*
X90170000Y-102235000D03*
%TO.N,Net-(J1-Pin_2)*%
X132080000Y-94615000D03*
%TO.N,/RIGHT*%
X86360000Y-88265000D03*
X94615000Y-88265000D03*
X99060000Y-83820000D03*
%TO.N,Net-(JP1-B)*%
X92710000Y-104140000D03*
%TD*%
D16*
%TO.N,/A_BUTTON*%
X100965000Y-129540000D02*
X100965000Y-104140000D01*
X100965000Y-104140000D02*
X106605000Y-98500000D01*
X105410000Y-98425000D02*
X88265000Y-98425000D01*
X106530000Y-98425000D02*
X105410000Y-98425000D01*
X81280000Y-91440000D02*
X81280000Y-73660000D01*
X106605000Y-98500000D02*
X106680000Y-98425000D01*
X105410000Y-98425000D02*
X107315000Y-98425000D01*
X106680000Y-98425000D02*
X107315000Y-98425000D01*
X106605000Y-98500000D02*
X106530000Y-98425000D01*
X88265000Y-98425000D02*
X81280000Y-91440000D01*
X99805000Y-130700000D02*
X100965000Y-129540000D01*
X107315000Y-98425000D02*
X109982000Y-98425000D01*
%TO.N,/B_BUTTON*%
X71200000Y-130700000D02*
X85835000Y-130700000D01*
X83820000Y-88900000D02*
X90170000Y-95250000D01*
X85835000Y-130700000D02*
X90170000Y-126365000D01*
X113430000Y-95250000D02*
X115900000Y-97720000D01*
X90170000Y-126365000D02*
X90170000Y-102235000D01*
X90170000Y-95250000D02*
X113430000Y-95250000D01*
X83820000Y-73660000D02*
X83820000Y-88900000D01*
X115900000Y-97720000D02*
X115900000Y-98425000D01*
%TO.N,Net-(J1-Pin_2)*%
X75565000Y-67310000D02*
X95250000Y-67310000D01*
X123825000Y-94615000D02*
X132080000Y-94615000D01*
X101600000Y-82550000D02*
X106680000Y-87630000D01*
X71120000Y-73660000D02*
X71120000Y-71755000D01*
X106680000Y-87630000D02*
X116840000Y-87630000D01*
X71120000Y-71755000D02*
X75565000Y-67310000D01*
X95250000Y-67310000D02*
X101600000Y-73660000D01*
X101600000Y-73660000D02*
X101600000Y-82550000D01*
X116840000Y-87630000D02*
X123825000Y-94615000D01*
%TO.N,Net-(J1-Pin_3)*%
X96520000Y-71755000D02*
X93980000Y-69215000D01*
X93980000Y-69215000D02*
X76200000Y-69215000D01*
X76200000Y-69215000D02*
X73660000Y-71755000D01*
X104140000Y-92710000D02*
X114935000Y-92710000D01*
X96520000Y-73660000D02*
X96520000Y-85090000D01*
X125620000Y-110380000D02*
X130470000Y-110380000D01*
X120650000Y-105410000D02*
X125620000Y-110380000D01*
X120650000Y-98425000D02*
X120650000Y-105410000D01*
X96520000Y-85090000D02*
X104140000Y-92710000D01*
X96520000Y-73660000D02*
X96520000Y-71755000D01*
X114935000Y-92710000D02*
X120650000Y-98425000D01*
X73660000Y-71755000D02*
X73660000Y-73660000D01*
%TO.N,/RIGHT*%
X143510000Y-97155000D02*
X158935000Y-112580000D01*
X123190000Y-97155000D02*
X143510000Y-97155000D01*
X99060000Y-73660000D02*
X99060000Y-83820000D01*
X99060000Y-83820000D02*
X105410000Y-90170000D01*
X116205000Y-90170000D02*
X123190000Y-97155000D01*
X105410000Y-90170000D02*
X116205000Y-90170000D01*
X94615000Y-88265000D02*
X86360000Y-88265000D01*
X158935000Y-112580000D02*
X176315000Y-112580000D01*
%TO.N,Net-(JP1-B)*%
X96070000Y-132900000D02*
X104560000Y-132900000D01*
X92710000Y-129540000D02*
X96070000Y-132900000D01*
X92710000Y-104140000D02*
X92710000Y-129540000D01*
%TD*%
M02*
