M48
; DRILL file {KiCad 7.0.10} date Fri Feb 23 16:37:53 2024
; FORMAT={-:-/ absolute / metric / decimal}
; #@! TF.CreationDate,2024-02-23T16:37:53+09:00
; #@! TF.GenerationSoftware,Kicad,Pcbnew,7.0.10
; #@! TF.FileFunction,MixedPlating,1,2
FMAT,2
METRIC
; #@! TA.AperFunction,Plated,PTH,ViaDrill
T1C0.400
; #@! TA.AperFunction,Plated,PTH,ComponentDrill
T2C0.800
; #@! TA.AperFunction,Plated,PTH,ComponentDrill
T3C1.000
; #@! TA.AperFunction,Plated,PTH,ComponentDrill
T4C1.100
; #@! TA.AperFunction,NonPlated,NPTH,ComponentDrill
T5C1.700
; #@! TA.AperFunction,NonPlated,NPTH,ComponentDrill
T6C3.200
; #@! TA.AperFunction,NonPlated,NPTH,ComponentDrill
T7C3.400
; #@! TA.AperFunction,NonPlated,NPTH,ComponentDrill
T8C6.400
%
G90
G05
T1
X86.36Y-88.265
X90.17Y-95.25
X90.17Y-102.235
X92.71Y-104.14
X94.615Y-88.265
X99.06Y-83.82
X132.08Y-94.615
T3
X68.58Y-73.66
X71.12Y-73.66
X73.66Y-73.66
X76.2Y-73.66
X78.74Y-73.66
X81.28Y-73.66
X83.82Y-73.66
X86.36Y-73.66
X88.9Y-73.66
X93.98Y-73.66
X96.52Y-73.66
X99.06Y-73.66
X101.6Y-73.66
X104.14Y-73.66
X106.68Y-73.66
T4
X109.982Y-98.425
X109.982Y-108.585
X116.205Y-98.425
X116.205Y-108.585
X130.556Y-119.888
X130.556Y-124.968
X130.556Y-130.048
X130.556Y-135.128
X140.716Y-119.888
X140.716Y-124.968
X140.716Y-130.048
X140.716Y-135.128
T5
X70.7Y-127.0
X81.7Y-127.0
X99.06Y-127.0
X110.06Y-127.0
X129.97Y-106.68
X140.97Y-106.68
X150.28Y-86.36
X150.29Y-127.0
X161.28Y-86.36
X161.29Y-127.0
X170.815Y-106.68
X181.815Y-106.68
T6
X51.3Y-70.12
X51.3Y-137.62
X120.8Y-70.12
X120.8Y-137.62
X189.3Y-70.12
X189.3Y-137.62
T7
X76.2Y-127.0
X104.56Y-127.0
X135.47Y-106.68
X155.78Y-86.36
X155.79Y-127.0
X176.315Y-106.68
T8
X54.3Y-99.695
X54.3Y-113.03
T2
G00X71.0Y-130.7
M15
G01X71.4Y-130.7
M16
G05
G00X76.0Y-132.9
M15
G01X76.4Y-132.9
M16
G05
G00X99.36Y-130.7
M15
G01X99.76Y-130.7
M16
G05
G00X104.36Y-132.9
M15
G01X104.76Y-132.9
M16
G05
G00X130.27Y-110.38
M15
G01X130.67Y-110.38
M16
G05
G00X135.27Y-112.58
M15
G01X135.67Y-112.58
M16
G05
G00X150.58Y-90.06
M15
G01X150.98Y-90.06
M16
G05
G00X150.59Y-130.7
M15
G01X150.99Y-130.7
M16
G05
G00X155.58Y-92.26
M15
G01X155.98Y-92.26
M16
G05
G00X155.59Y-132.9
M15
G01X155.99Y-132.9
M16
G05
G00X171.115Y-110.38
M15
G01X171.515Y-110.38
M16
G05
G00X176.115Y-112.58
M15
G01X176.515Y-112.58
M16
G05
M30
