%TF.GenerationSoftware,KiCad,Pcbnew,7.0.10*%
%TF.CreationDate,2024-02-09T22:35:13+09:00*%
%TF.ProjectId,game_pad,67616d65-5f70-4616-942e-6b696361645f,1*%
%TF.SameCoordinates,Original*%
%TF.FileFunction,Soldermask,Top*%
%TF.FilePolarity,Negative*%
%FSLAX46Y46*%
G04 Gerber Fmt 4.6, Leading zero omitted, Abs format (unit mm)*
G04 Created by KiCad (PCBNEW 7.0.10) date 2024-02-09 22:35:13*
%MOMM*%
%LPD*%
G01*
G04 APERTURE LIST*
%ADD10C,1.700000*%
%ADD11C,3.400000*%
%ADD12O,1.600000X1.200000*%
%ADD13R,1.700000X1.700000*%
%ADD14O,1.700000X1.700000*%
%ADD15C,3.200000*%
%ADD16C,6.400000*%
%ADD17R,2.200000X2.200000*%
%ADD18O,2.200000X2.200000*%
G04 APERTURE END LIST*
D10*
%TO.C,SW6*%
X150290000Y-127000000D03*
D11*
X155790000Y-127000000D03*
D10*
X161290000Y-127000000D03*
D12*
X150790000Y-130700000D03*
X155790000Y-132900000D03*
%TD*%
D13*
%TO.C,J2*%
X93980000Y-73660000D03*
D14*
X96520000Y-73660000D03*
X99060000Y-73660000D03*
X101600000Y-73660000D03*
X104140000Y-73660000D03*
X106680000Y-73660000D03*
%TD*%
D10*
%TO.C,SW5*%
X170815000Y-106680000D03*
D11*
X176315000Y-106680000D03*
D10*
X181815000Y-106680000D03*
D12*
X171315000Y-110380000D03*
X176315000Y-112580000D03*
%TD*%
D15*
%TO.C,MH3*%
X51300000Y-137620000D03*
%TD*%
%TO.C,MH3*%
X120800000Y-137620000D03*
%TD*%
D16*
%TO.C,HOLE1*%
X54300000Y-99695000D03*
%TD*%
D17*
%TO.C,D1*%
X109982000Y-108585000D03*
D18*
X109982000Y-98425000D03*
%TD*%
D16*
%TO.C,HOLE2*%
X54300000Y-113030000D03*
%TD*%
D10*
%TO.C,SW1*%
X70700000Y-127000000D03*
D11*
X76200000Y-127000000D03*
D10*
X81700000Y-127000000D03*
D12*
X71200000Y-130700000D03*
X76200000Y-132900000D03*
%TD*%
D17*
%TO.C,D2*%
X116205000Y-108585000D03*
D18*
X116205000Y-98425000D03*
%TD*%
D15*
%TO.C,MH1*%
X51300000Y-70120000D03*
%TD*%
D10*
%TO.C,SW4*%
X129970000Y-106680000D03*
D11*
X135470000Y-106680000D03*
D10*
X140970000Y-106680000D03*
D12*
X130470000Y-110380000D03*
X135470000Y-112580000D03*
%TD*%
D15*
%TO.C,MH4*%
X189300000Y-137620000D03*
%TD*%
%TO.C,MH2*%
X189300000Y-70120000D03*
%TD*%
%TO.C,MH3*%
X120800000Y-70120000D03*
%TD*%
D10*
%TO.C,SW3*%
X150280000Y-86360000D03*
D11*
X155780000Y-86360000D03*
D10*
X161280000Y-86360000D03*
D12*
X150780000Y-90060000D03*
X155780000Y-92260000D03*
%TD*%
D13*
%TO.C,J1*%
X68580000Y-73660000D03*
D14*
X71120000Y-73660000D03*
X73660000Y-73660000D03*
X76200000Y-73660000D03*
X78740000Y-73660000D03*
X81280000Y-73660000D03*
X83820000Y-73660000D03*
X86360000Y-73660000D03*
X88900000Y-73660000D03*
%TD*%
D10*
%TO.C,SW2*%
X99060000Y-127000000D03*
D11*
X104560000Y-127000000D03*
D10*
X110060000Y-127000000D03*
D12*
X99560000Y-130700000D03*
X104560000Y-132900000D03*
%TD*%
M02*
