G04 #@! TF.GenerationSoftware,KiCad,Pcbnew,7.0.10*
G04 #@! TF.CreationDate,2024-02-23T16:37:41+09:00*
G04 #@! TF.ProjectId,game_pad,67616d65-5f70-4616-942e-6b696361645f,1*
G04 #@! TF.SameCoordinates,Original*
G04 #@! TF.FileFunction,Legend,Bot*
G04 #@! TF.FilePolarity,Positive*
%FSLAX46Y46*%
G04 Gerber Fmt 4.6, Leading zero omitted, Abs format (unit mm)*
G04 Created by KiCad (PCBNEW 7.0.10) date 2024-02-23 16:37:41*
%MOMM*%
%LPD*%
G01*
G04 APERTURE LIST*
%ADD10C,0.150000*%
%ADD11C,0.120000*%
G04 APERTURE END LIST*
D10*
X94525819Y-79076779D02*
X93525819Y-79076779D01*
X93525819Y-79076779D02*
X94240104Y-79410112D01*
X94240104Y-79410112D02*
X93525819Y-79743445D01*
X93525819Y-79743445D02*
X94525819Y-79743445D01*
X94478200Y-80172017D02*
X94525819Y-80314874D01*
X94525819Y-80314874D02*
X94525819Y-80552969D01*
X94525819Y-80552969D02*
X94478200Y-80648207D01*
X94478200Y-80648207D02*
X94430580Y-80695826D01*
X94430580Y-80695826D02*
X94335342Y-80743445D01*
X94335342Y-80743445D02*
X94240104Y-80743445D01*
X94240104Y-80743445D02*
X94144866Y-80695826D01*
X94144866Y-80695826D02*
X94097247Y-80648207D01*
X94097247Y-80648207D02*
X94049628Y-80552969D01*
X94049628Y-80552969D02*
X94002009Y-80362493D01*
X94002009Y-80362493D02*
X93954390Y-80267255D01*
X93954390Y-80267255D02*
X93906771Y-80219636D01*
X93906771Y-80219636D02*
X93811533Y-80172017D01*
X93811533Y-80172017D02*
X93716295Y-80172017D01*
X93716295Y-80172017D02*
X93621057Y-80219636D01*
X93621057Y-80219636D02*
X93573438Y-80267255D01*
X93573438Y-80267255D02*
X93525819Y-80362493D01*
X93525819Y-80362493D02*
X93525819Y-80600588D01*
X93525819Y-80600588D02*
X93573438Y-80743445D01*
X93525819Y-81076779D02*
X94525819Y-81743445D01*
X93525819Y-81743445D02*
X94525819Y-81076779D01*
X93573438Y-83410112D02*
X93525819Y-83314874D01*
X93525819Y-83314874D02*
X93525819Y-83172017D01*
X93525819Y-83172017D02*
X93573438Y-83029160D01*
X93573438Y-83029160D02*
X93668676Y-82933922D01*
X93668676Y-82933922D02*
X93763914Y-82886303D01*
X93763914Y-82886303D02*
X93954390Y-82838684D01*
X93954390Y-82838684D02*
X94097247Y-82838684D01*
X94097247Y-82838684D02*
X94287723Y-82886303D01*
X94287723Y-82886303D02*
X94382961Y-82933922D01*
X94382961Y-82933922D02*
X94478200Y-83029160D01*
X94478200Y-83029160D02*
X94525819Y-83172017D01*
X94525819Y-83172017D02*
X94525819Y-83267255D01*
X94525819Y-83267255D02*
X94478200Y-83410112D01*
X94478200Y-83410112D02*
X94430580Y-83457731D01*
X94430580Y-83457731D02*
X94097247Y-83457731D01*
X94097247Y-83457731D02*
X94097247Y-83267255D01*
X94525819Y-83886303D02*
X93525819Y-83886303D01*
X93525819Y-83886303D02*
X94525819Y-84457731D01*
X94525819Y-84457731D02*
X93525819Y-84457731D01*
X94525819Y-84933922D02*
X93525819Y-84933922D01*
X93525819Y-84933922D02*
X93525819Y-85172017D01*
X93525819Y-85172017D02*
X93573438Y-85314874D01*
X93573438Y-85314874D02*
X93668676Y-85410112D01*
X93668676Y-85410112D02*
X93763914Y-85457731D01*
X93763914Y-85457731D02*
X93954390Y-85505350D01*
X93954390Y-85505350D02*
X94097247Y-85505350D01*
X94097247Y-85505350D02*
X94287723Y-85457731D01*
X94287723Y-85457731D02*
X94382961Y-85410112D01*
X94382961Y-85410112D02*
X94478200Y-85314874D01*
X94478200Y-85314874D02*
X94525819Y-85172017D01*
X94525819Y-85172017D02*
X94525819Y-84933922D01*
X96040580Y-79648207D02*
X96088200Y-79600588D01*
X96088200Y-79600588D02*
X96135819Y-79457731D01*
X96135819Y-79457731D02*
X96135819Y-79362493D01*
X96135819Y-79362493D02*
X96088200Y-79219636D01*
X96088200Y-79219636D02*
X95992961Y-79124398D01*
X95992961Y-79124398D02*
X95897723Y-79076779D01*
X95897723Y-79076779D02*
X95707247Y-79029160D01*
X95707247Y-79029160D02*
X95564390Y-79029160D01*
X95564390Y-79029160D02*
X95373914Y-79076779D01*
X95373914Y-79076779D02*
X95278676Y-79124398D01*
X95278676Y-79124398D02*
X95183438Y-79219636D01*
X95183438Y-79219636D02*
X95135819Y-79362493D01*
X95135819Y-79362493D02*
X95135819Y-79457731D01*
X95135819Y-79457731D02*
X95183438Y-79600588D01*
X95183438Y-79600588D02*
X95231057Y-79648207D01*
X96135819Y-80219636D02*
X96088200Y-80124398D01*
X96088200Y-80124398D02*
X96040580Y-80076779D01*
X96040580Y-80076779D02*
X95945342Y-80029160D01*
X95945342Y-80029160D02*
X95659628Y-80029160D01*
X95659628Y-80029160D02*
X95564390Y-80076779D01*
X95564390Y-80076779D02*
X95516771Y-80124398D01*
X95516771Y-80124398D02*
X95469152Y-80219636D01*
X95469152Y-80219636D02*
X95469152Y-80362493D01*
X95469152Y-80362493D02*
X95516771Y-80457731D01*
X95516771Y-80457731D02*
X95564390Y-80505350D01*
X95564390Y-80505350D02*
X95659628Y-80552969D01*
X95659628Y-80552969D02*
X95945342Y-80552969D01*
X95945342Y-80552969D02*
X96040580Y-80505350D01*
X96040580Y-80505350D02*
X96088200Y-80457731D01*
X96088200Y-80457731D02*
X96135819Y-80362493D01*
X96135819Y-80362493D02*
X96135819Y-80219636D01*
X95469152Y-80981541D02*
X96135819Y-80981541D01*
X95564390Y-80981541D02*
X95516771Y-81029160D01*
X95516771Y-81029160D02*
X95469152Y-81124398D01*
X95469152Y-81124398D02*
X95469152Y-81267255D01*
X95469152Y-81267255D02*
X95516771Y-81362493D01*
X95516771Y-81362493D02*
X95612009Y-81410112D01*
X95612009Y-81410112D02*
X96135819Y-81410112D01*
X95469152Y-81886303D02*
X96135819Y-81886303D01*
X95564390Y-81886303D02*
X95516771Y-81933922D01*
X95516771Y-81933922D02*
X95469152Y-82029160D01*
X95469152Y-82029160D02*
X95469152Y-82172017D01*
X95469152Y-82172017D02*
X95516771Y-82267255D01*
X95516771Y-82267255D02*
X95612009Y-82314874D01*
X95612009Y-82314874D02*
X96135819Y-82314874D01*
X96088200Y-83172017D02*
X96135819Y-83076779D01*
X96135819Y-83076779D02*
X96135819Y-82886303D01*
X96135819Y-82886303D02*
X96088200Y-82791065D01*
X96088200Y-82791065D02*
X95992961Y-82743446D01*
X95992961Y-82743446D02*
X95612009Y-82743446D01*
X95612009Y-82743446D02*
X95516771Y-82791065D01*
X95516771Y-82791065D02*
X95469152Y-82886303D01*
X95469152Y-82886303D02*
X95469152Y-83076779D01*
X95469152Y-83076779D02*
X95516771Y-83172017D01*
X95516771Y-83172017D02*
X95612009Y-83219636D01*
X95612009Y-83219636D02*
X95707247Y-83219636D01*
X95707247Y-83219636D02*
X95802485Y-82743446D01*
X96088200Y-84076779D02*
X96135819Y-83981541D01*
X96135819Y-83981541D02*
X96135819Y-83791065D01*
X96135819Y-83791065D02*
X96088200Y-83695827D01*
X96088200Y-83695827D02*
X96040580Y-83648208D01*
X96040580Y-83648208D02*
X95945342Y-83600589D01*
X95945342Y-83600589D02*
X95659628Y-83600589D01*
X95659628Y-83600589D02*
X95564390Y-83648208D01*
X95564390Y-83648208D02*
X95516771Y-83695827D01*
X95516771Y-83695827D02*
X95469152Y-83791065D01*
X95469152Y-83791065D02*
X95469152Y-83981541D01*
X95469152Y-83981541D02*
X95516771Y-84076779D01*
X95469152Y-84362494D02*
X95469152Y-84743446D01*
X95135819Y-84505351D02*
X95992961Y-84505351D01*
X95992961Y-84505351D02*
X96088200Y-84552970D01*
X96088200Y-84552970D02*
X96135819Y-84648208D01*
X96135819Y-84648208D02*
X96135819Y-84743446D01*
X122234077Y-118243152D02*
X121853125Y-118243152D01*
X122091220Y-118909819D02*
X122091220Y-118052676D01*
X122091220Y-118052676D02*
X122043601Y-117957438D01*
X122043601Y-117957438D02*
X121948363Y-117909819D01*
X121948363Y-117909819D02*
X121853125Y-117909819D01*
X121376934Y-118909819D02*
X121472172Y-118862200D01*
X121472172Y-118862200D02*
X121519791Y-118814580D01*
X121519791Y-118814580D02*
X121567410Y-118719342D01*
X121567410Y-118719342D02*
X121567410Y-118433628D01*
X121567410Y-118433628D02*
X121519791Y-118338390D01*
X121519791Y-118338390D02*
X121472172Y-118290771D01*
X121472172Y-118290771D02*
X121376934Y-118243152D01*
X121376934Y-118243152D02*
X121234077Y-118243152D01*
X121234077Y-118243152D02*
X121138839Y-118290771D01*
X121138839Y-118290771D02*
X121091220Y-118338390D01*
X121091220Y-118338390D02*
X121043601Y-118433628D01*
X121043601Y-118433628D02*
X121043601Y-118719342D01*
X121043601Y-118719342D02*
X121091220Y-118814580D01*
X121091220Y-118814580D02*
X121138839Y-118862200D01*
X121138839Y-118862200D02*
X121234077Y-118909819D01*
X121234077Y-118909819D02*
X121376934Y-118909819D01*
X120615029Y-118909819D02*
X120615029Y-118243152D01*
X120615029Y-118433628D02*
X120567410Y-118338390D01*
X120567410Y-118338390D02*
X120519791Y-118290771D01*
X120519791Y-118290771D02*
X120424553Y-118243152D01*
X120424553Y-118243152D02*
X120329315Y-118243152D01*
X119234076Y-118909819D02*
X119234076Y-117909819D01*
X119234076Y-117909819D02*
X118900743Y-118624104D01*
X118900743Y-118624104D02*
X118567410Y-117909819D01*
X118567410Y-117909819D02*
X118567410Y-118909819D01*
X118138838Y-118862200D02*
X117995981Y-118909819D01*
X117995981Y-118909819D02*
X117757886Y-118909819D01*
X117757886Y-118909819D02*
X117662648Y-118862200D01*
X117662648Y-118862200D02*
X117615029Y-118814580D01*
X117615029Y-118814580D02*
X117567410Y-118719342D01*
X117567410Y-118719342D02*
X117567410Y-118624104D01*
X117567410Y-118624104D02*
X117615029Y-118528866D01*
X117615029Y-118528866D02*
X117662648Y-118481247D01*
X117662648Y-118481247D02*
X117757886Y-118433628D01*
X117757886Y-118433628D02*
X117948362Y-118386009D01*
X117948362Y-118386009D02*
X118043600Y-118338390D01*
X118043600Y-118338390D02*
X118091219Y-118290771D01*
X118091219Y-118290771D02*
X118138838Y-118195533D01*
X118138838Y-118195533D02*
X118138838Y-118100295D01*
X118138838Y-118100295D02*
X118091219Y-118005057D01*
X118091219Y-118005057D02*
X118043600Y-117957438D01*
X118043600Y-117957438D02*
X117948362Y-117909819D01*
X117948362Y-117909819D02*
X117710267Y-117909819D01*
X117710267Y-117909819D02*
X117567410Y-117957438D01*
X117234076Y-117909819D02*
X116567410Y-118909819D01*
X116567410Y-117909819D02*
X117234076Y-118909819D01*
X116186457Y-118814580D02*
X116138838Y-118862200D01*
X116138838Y-118862200D02*
X116186457Y-118909819D01*
X116186457Y-118909819D02*
X116234076Y-118862200D01*
X116234076Y-118862200D02*
X116186457Y-118814580D01*
X116186457Y-118814580D02*
X116186457Y-118909819D01*
X116186457Y-118290771D02*
X116138838Y-118338390D01*
X116138838Y-118338390D02*
X116186457Y-118386009D01*
X116186457Y-118386009D02*
X116234076Y-118338390D01*
X116234076Y-118338390D02*
X116186457Y-118290771D01*
X116186457Y-118290771D02*
X116186457Y-118386009D01*
X114948362Y-118909819D02*
X114948362Y-117909819D01*
X114948362Y-117909819D02*
X114710267Y-117909819D01*
X114710267Y-117909819D02*
X114567410Y-117957438D01*
X114567410Y-117957438D02*
X114472172Y-118052676D01*
X114472172Y-118052676D02*
X114424553Y-118147914D01*
X114424553Y-118147914D02*
X114376934Y-118338390D01*
X114376934Y-118338390D02*
X114376934Y-118481247D01*
X114376934Y-118481247D02*
X114424553Y-118671723D01*
X114424553Y-118671723D02*
X114472172Y-118766961D01*
X114472172Y-118766961D02*
X114567410Y-118862200D01*
X114567410Y-118862200D02*
X114710267Y-118909819D01*
X114710267Y-118909819D02*
X114948362Y-118909819D01*
X113424553Y-118909819D02*
X113995981Y-118909819D01*
X113710267Y-118909819D02*
X113710267Y-117909819D01*
X113710267Y-117909819D02*
X113805505Y-118052676D01*
X113805505Y-118052676D02*
X113900743Y-118147914D01*
X113900743Y-118147914D02*
X113995981Y-118195533D01*
X112995981Y-118528866D02*
X112234077Y-118528866D01*
X111757886Y-118909819D02*
X111757886Y-117909819D01*
X111757886Y-117909819D02*
X111519791Y-117909819D01*
X111519791Y-117909819D02*
X111376934Y-117957438D01*
X111376934Y-117957438D02*
X111281696Y-118052676D01*
X111281696Y-118052676D02*
X111234077Y-118147914D01*
X111234077Y-118147914D02*
X111186458Y-118338390D01*
X111186458Y-118338390D02*
X111186458Y-118481247D01*
X111186458Y-118481247D02*
X111234077Y-118671723D01*
X111234077Y-118671723D02*
X111281696Y-118766961D01*
X111281696Y-118766961D02*
X111376934Y-118862200D01*
X111376934Y-118862200D02*
X111519791Y-118909819D01*
X111519791Y-118909819D02*
X111757886Y-118909819D01*
X110329315Y-117909819D02*
X110519791Y-117909819D01*
X110519791Y-117909819D02*
X110615029Y-117957438D01*
X110615029Y-117957438D02*
X110662648Y-118005057D01*
X110662648Y-118005057D02*
X110757886Y-118147914D01*
X110757886Y-118147914D02*
X110805505Y-118338390D01*
X110805505Y-118338390D02*
X110805505Y-118719342D01*
X110805505Y-118719342D02*
X110757886Y-118814580D01*
X110757886Y-118814580D02*
X110710267Y-118862200D01*
X110710267Y-118862200D02*
X110615029Y-118909819D01*
X110615029Y-118909819D02*
X110424553Y-118909819D01*
X110424553Y-118909819D02*
X110329315Y-118862200D01*
X110329315Y-118862200D02*
X110281696Y-118814580D01*
X110281696Y-118814580D02*
X110234077Y-118719342D01*
X110234077Y-118719342D02*
X110234077Y-118481247D01*
X110234077Y-118481247D02*
X110281696Y-118386009D01*
X110281696Y-118386009D02*
X110329315Y-118338390D01*
X110329315Y-118338390D02*
X110424553Y-118290771D01*
X110424553Y-118290771D02*
X110615029Y-118290771D01*
X110615029Y-118290771D02*
X110710267Y-118338390D01*
X110710267Y-118338390D02*
X110757886Y-118386009D01*
X110757886Y-118386009D02*
X110805505Y-118481247D01*
X108853124Y-117909819D02*
X108662648Y-117909819D01*
X108662648Y-117909819D02*
X108567410Y-117957438D01*
X108567410Y-117957438D02*
X108472172Y-118052676D01*
X108472172Y-118052676D02*
X108424553Y-118243152D01*
X108424553Y-118243152D02*
X108424553Y-118576485D01*
X108424553Y-118576485D02*
X108472172Y-118766961D01*
X108472172Y-118766961D02*
X108567410Y-118862200D01*
X108567410Y-118862200D02*
X108662648Y-118909819D01*
X108662648Y-118909819D02*
X108853124Y-118909819D01*
X108853124Y-118909819D02*
X108948362Y-118862200D01*
X108948362Y-118862200D02*
X109043600Y-118766961D01*
X109043600Y-118766961D02*
X109091219Y-118576485D01*
X109091219Y-118576485D02*
X109091219Y-118243152D01*
X109091219Y-118243152D02*
X109043600Y-118052676D01*
X109043600Y-118052676D02*
X108948362Y-117957438D01*
X108948362Y-117957438D02*
X108853124Y-117909819D01*
X107995981Y-118909819D02*
X107995981Y-117909819D01*
X107995981Y-117909819D02*
X107615029Y-117909819D01*
X107615029Y-117909819D02*
X107519791Y-117957438D01*
X107519791Y-117957438D02*
X107472172Y-118005057D01*
X107472172Y-118005057D02*
X107424553Y-118100295D01*
X107424553Y-118100295D02*
X107424553Y-118243152D01*
X107424553Y-118243152D02*
X107472172Y-118338390D01*
X107472172Y-118338390D02*
X107519791Y-118386009D01*
X107519791Y-118386009D02*
X107615029Y-118433628D01*
X107615029Y-118433628D02*
X107995981Y-118433628D01*
X106995981Y-118386009D02*
X106662648Y-118386009D01*
X106519791Y-118909819D02*
X106995981Y-118909819D01*
X106995981Y-118909819D02*
X106995981Y-117909819D01*
X106995981Y-117909819D02*
X106519791Y-117909819D01*
X106091219Y-118909819D02*
X106091219Y-117909819D01*
X106091219Y-117909819D02*
X105519791Y-118909819D01*
X105519791Y-118909819D02*
X105519791Y-117909819D01*
X105043600Y-118814580D02*
X104995981Y-118862200D01*
X104995981Y-118862200D02*
X105043600Y-118909819D01*
X105043600Y-118909819D02*
X105091219Y-118862200D01*
X105091219Y-118862200D02*
X105043600Y-118814580D01*
X105043600Y-118814580D02*
X105043600Y-118909819D01*
X103043600Y-118909819D02*
X103043600Y-117909819D01*
X103043600Y-117909819D02*
X102710267Y-118624104D01*
X102710267Y-118624104D02*
X102376934Y-117909819D01*
X102376934Y-117909819D02*
X102376934Y-118909819D01*
X101948362Y-118862200D02*
X101805505Y-118909819D01*
X101805505Y-118909819D02*
X101567410Y-118909819D01*
X101567410Y-118909819D02*
X101472172Y-118862200D01*
X101472172Y-118862200D02*
X101424553Y-118814580D01*
X101424553Y-118814580D02*
X101376934Y-118719342D01*
X101376934Y-118719342D02*
X101376934Y-118624104D01*
X101376934Y-118624104D02*
X101424553Y-118528866D01*
X101424553Y-118528866D02*
X101472172Y-118481247D01*
X101472172Y-118481247D02*
X101567410Y-118433628D01*
X101567410Y-118433628D02*
X101757886Y-118386009D01*
X101757886Y-118386009D02*
X101853124Y-118338390D01*
X101853124Y-118338390D02*
X101900743Y-118290771D01*
X101900743Y-118290771D02*
X101948362Y-118195533D01*
X101948362Y-118195533D02*
X101948362Y-118100295D01*
X101948362Y-118100295D02*
X101900743Y-118005057D01*
X101900743Y-118005057D02*
X101853124Y-117957438D01*
X101853124Y-117957438D02*
X101757886Y-117909819D01*
X101757886Y-117909819D02*
X101519791Y-117909819D01*
X101519791Y-117909819D02*
X101376934Y-117957438D01*
X101043600Y-117909819D02*
X100376934Y-118909819D01*
X100376934Y-117909819D02*
X101043600Y-118909819D01*
X99234076Y-118909819D02*
X99234076Y-117909819D01*
X99234076Y-117909819D02*
X98900743Y-118624104D01*
X98900743Y-118624104D02*
X98567410Y-117909819D01*
X98567410Y-117909819D02*
X98567410Y-118909819D01*
X97948362Y-118909819D02*
X98043600Y-118862200D01*
X98043600Y-118862200D02*
X98091219Y-118814580D01*
X98091219Y-118814580D02*
X98138838Y-118719342D01*
X98138838Y-118719342D02*
X98138838Y-118433628D01*
X98138838Y-118433628D02*
X98091219Y-118338390D01*
X98091219Y-118338390D02*
X98043600Y-118290771D01*
X98043600Y-118290771D02*
X97948362Y-118243152D01*
X97948362Y-118243152D02*
X97805505Y-118243152D01*
X97805505Y-118243152D02*
X97710267Y-118290771D01*
X97710267Y-118290771D02*
X97662648Y-118338390D01*
X97662648Y-118338390D02*
X97615029Y-118433628D01*
X97615029Y-118433628D02*
X97615029Y-118719342D01*
X97615029Y-118719342D02*
X97662648Y-118814580D01*
X97662648Y-118814580D02*
X97710267Y-118862200D01*
X97710267Y-118862200D02*
X97805505Y-118909819D01*
X97805505Y-118909819D02*
X97948362Y-118909819D01*
X96757886Y-118909819D02*
X96757886Y-117909819D01*
X96757886Y-118862200D02*
X96853124Y-118909819D01*
X96853124Y-118909819D02*
X97043600Y-118909819D01*
X97043600Y-118909819D02*
X97138838Y-118862200D01*
X97138838Y-118862200D02*
X97186457Y-118814580D01*
X97186457Y-118814580D02*
X97234076Y-118719342D01*
X97234076Y-118719342D02*
X97234076Y-118433628D01*
X97234076Y-118433628D02*
X97186457Y-118338390D01*
X97186457Y-118338390D02*
X97138838Y-118290771D01*
X97138838Y-118290771D02*
X97043600Y-118243152D01*
X97043600Y-118243152D02*
X96853124Y-118243152D01*
X96853124Y-118243152D02*
X96757886Y-118290771D01*
X95900743Y-118862200D02*
X95995981Y-118909819D01*
X95995981Y-118909819D02*
X96186457Y-118909819D01*
X96186457Y-118909819D02*
X96281695Y-118862200D01*
X96281695Y-118862200D02*
X96329314Y-118766961D01*
X96329314Y-118766961D02*
X96329314Y-118386009D01*
X96329314Y-118386009D02*
X96281695Y-118290771D01*
X96281695Y-118290771D02*
X96186457Y-118243152D01*
X96186457Y-118243152D02*
X95995981Y-118243152D01*
X95995981Y-118243152D02*
X95900743Y-118290771D01*
X95900743Y-118290771D02*
X95853124Y-118386009D01*
X95853124Y-118386009D02*
X95853124Y-118481247D01*
X95853124Y-118481247D02*
X96329314Y-118576485D01*
X94376933Y-117909819D02*
X94376933Y-118624104D01*
X94376933Y-118624104D02*
X94424552Y-118766961D01*
X94424552Y-118766961D02*
X94519790Y-118862200D01*
X94519790Y-118862200D02*
X94662647Y-118909819D01*
X94662647Y-118909819D02*
X94757885Y-118909819D01*
X93900742Y-118909819D02*
X93900742Y-117909819D01*
X93900742Y-117909819D02*
X93519790Y-117909819D01*
X93519790Y-117909819D02*
X93424552Y-117957438D01*
X93424552Y-117957438D02*
X93376933Y-118005057D01*
X93376933Y-118005057D02*
X93329314Y-118100295D01*
X93329314Y-118100295D02*
X93329314Y-118243152D01*
X93329314Y-118243152D02*
X93376933Y-118338390D01*
X93376933Y-118338390D02*
X93424552Y-118386009D01*
X93424552Y-118386009D02*
X93519790Y-118433628D01*
X93519790Y-118433628D02*
X93900742Y-118433628D01*
X92186456Y-118862200D02*
X92043599Y-118909819D01*
X92043599Y-118909819D02*
X91805504Y-118909819D01*
X91805504Y-118909819D02*
X91710266Y-118862200D01*
X91710266Y-118862200D02*
X91662647Y-118814580D01*
X91662647Y-118814580D02*
X91615028Y-118719342D01*
X91615028Y-118719342D02*
X91615028Y-118624104D01*
X91615028Y-118624104D02*
X91662647Y-118528866D01*
X91662647Y-118528866D02*
X91710266Y-118481247D01*
X91710266Y-118481247D02*
X91805504Y-118433628D01*
X91805504Y-118433628D02*
X91995980Y-118386009D01*
X91995980Y-118386009D02*
X92091218Y-118338390D01*
X92091218Y-118338390D02*
X92138837Y-118290771D01*
X92138837Y-118290771D02*
X92186456Y-118195533D01*
X92186456Y-118195533D02*
X92186456Y-118100295D01*
X92186456Y-118100295D02*
X92138837Y-118005057D01*
X92138837Y-118005057D02*
X92091218Y-117957438D01*
X92091218Y-117957438D02*
X91995980Y-117909819D01*
X91995980Y-117909819D02*
X91757885Y-117909819D01*
X91757885Y-117909819D02*
X91615028Y-117957438D01*
X91186456Y-118909819D02*
X91186456Y-117909819D01*
X91186456Y-118386009D02*
X90615028Y-118386009D01*
X90615028Y-118909819D02*
X90615028Y-117909819D01*
X89948361Y-117909819D02*
X89757885Y-117909819D01*
X89757885Y-117909819D02*
X89662647Y-117957438D01*
X89662647Y-117957438D02*
X89567409Y-118052676D01*
X89567409Y-118052676D02*
X89519790Y-118243152D01*
X89519790Y-118243152D02*
X89519790Y-118576485D01*
X89519790Y-118576485D02*
X89567409Y-118766961D01*
X89567409Y-118766961D02*
X89662647Y-118862200D01*
X89662647Y-118862200D02*
X89757885Y-118909819D01*
X89757885Y-118909819D02*
X89948361Y-118909819D01*
X89948361Y-118909819D02*
X90043599Y-118862200D01*
X90043599Y-118862200D02*
X90138837Y-118766961D01*
X90138837Y-118766961D02*
X90186456Y-118576485D01*
X90186456Y-118576485D02*
X90186456Y-118243152D01*
X90186456Y-118243152D02*
X90138837Y-118052676D01*
X90138837Y-118052676D02*
X90043599Y-117957438D01*
X90043599Y-117957438D02*
X89948361Y-117909819D01*
X88519790Y-118909819D02*
X88853123Y-118433628D01*
X89091218Y-118909819D02*
X89091218Y-117909819D01*
X89091218Y-117909819D02*
X88710266Y-117909819D01*
X88710266Y-117909819D02*
X88615028Y-117957438D01*
X88615028Y-117957438D02*
X88567409Y-118005057D01*
X88567409Y-118005057D02*
X88519790Y-118100295D01*
X88519790Y-118100295D02*
X88519790Y-118243152D01*
X88519790Y-118243152D02*
X88567409Y-118338390D01*
X88567409Y-118338390D02*
X88615028Y-118386009D01*
X88615028Y-118386009D02*
X88710266Y-118433628D01*
X88710266Y-118433628D02*
X89091218Y-118433628D01*
X88234075Y-117909819D02*
X87662647Y-117909819D01*
X87948361Y-118909819D02*
X87948361Y-117909819D01*
X87329313Y-118814580D02*
X87281694Y-118862200D01*
X87281694Y-118862200D02*
X87329313Y-118909819D01*
X87329313Y-118909819D02*
X87376932Y-118862200D01*
X87376932Y-118862200D02*
X87329313Y-118814580D01*
X87329313Y-118814580D02*
X87329313Y-118909819D01*
X86091218Y-118909819D02*
X86091218Y-117909819D01*
X86091218Y-117909819D02*
X85757885Y-118624104D01*
X85757885Y-118624104D02*
X85424552Y-117909819D01*
X85424552Y-117909819D02*
X85424552Y-118909819D01*
X84472171Y-117909819D02*
X84948361Y-117909819D01*
X84948361Y-117909819D02*
X84995980Y-118386009D01*
X84995980Y-118386009D02*
X84948361Y-118338390D01*
X84948361Y-118338390D02*
X84853123Y-118290771D01*
X84853123Y-118290771D02*
X84615028Y-118290771D01*
X84615028Y-118290771D02*
X84519790Y-118338390D01*
X84519790Y-118338390D02*
X84472171Y-118386009D01*
X84472171Y-118386009D02*
X84424552Y-118481247D01*
X84424552Y-118481247D02*
X84424552Y-118719342D01*
X84424552Y-118719342D02*
X84472171Y-118814580D01*
X84472171Y-118814580D02*
X84519790Y-118862200D01*
X84519790Y-118862200D02*
X84615028Y-118909819D01*
X84615028Y-118909819D02*
X84853123Y-118909819D01*
X84853123Y-118909819D02*
X84948361Y-118862200D01*
X84948361Y-118862200D02*
X84995980Y-118814580D01*
X83234075Y-118909819D02*
X83234075Y-117909819D01*
X83234075Y-117909819D02*
X82900742Y-118624104D01*
X82900742Y-118624104D02*
X82567409Y-117909819D01*
X82567409Y-117909819D02*
X82567409Y-118909819D01*
X81948361Y-118909819D02*
X82043599Y-118862200D01*
X82043599Y-118862200D02*
X82091218Y-118814580D01*
X82091218Y-118814580D02*
X82138837Y-118719342D01*
X82138837Y-118719342D02*
X82138837Y-118433628D01*
X82138837Y-118433628D02*
X82091218Y-118338390D01*
X82091218Y-118338390D02*
X82043599Y-118290771D01*
X82043599Y-118290771D02*
X81948361Y-118243152D01*
X81948361Y-118243152D02*
X81805504Y-118243152D01*
X81805504Y-118243152D02*
X81710266Y-118290771D01*
X81710266Y-118290771D02*
X81662647Y-118338390D01*
X81662647Y-118338390D02*
X81615028Y-118433628D01*
X81615028Y-118433628D02*
X81615028Y-118719342D01*
X81615028Y-118719342D02*
X81662647Y-118814580D01*
X81662647Y-118814580D02*
X81710266Y-118862200D01*
X81710266Y-118862200D02*
X81805504Y-118909819D01*
X81805504Y-118909819D02*
X81948361Y-118909819D01*
X80757885Y-118909819D02*
X80757885Y-117909819D01*
X80757885Y-118862200D02*
X80853123Y-118909819D01*
X80853123Y-118909819D02*
X81043599Y-118909819D01*
X81043599Y-118909819D02*
X81138837Y-118862200D01*
X81138837Y-118862200D02*
X81186456Y-118814580D01*
X81186456Y-118814580D02*
X81234075Y-118719342D01*
X81234075Y-118719342D02*
X81234075Y-118433628D01*
X81234075Y-118433628D02*
X81186456Y-118338390D01*
X81186456Y-118338390D02*
X81138837Y-118290771D01*
X81138837Y-118290771D02*
X81043599Y-118243152D01*
X81043599Y-118243152D02*
X80853123Y-118243152D01*
X80853123Y-118243152D02*
X80757885Y-118290771D01*
X79900742Y-118862200D02*
X79995980Y-118909819D01*
X79995980Y-118909819D02*
X80186456Y-118909819D01*
X80186456Y-118909819D02*
X80281694Y-118862200D01*
X80281694Y-118862200D02*
X80329313Y-118766961D01*
X80329313Y-118766961D02*
X80329313Y-118386009D01*
X80329313Y-118386009D02*
X80281694Y-118290771D01*
X80281694Y-118290771D02*
X80186456Y-118243152D01*
X80186456Y-118243152D02*
X79995980Y-118243152D01*
X79995980Y-118243152D02*
X79900742Y-118290771D01*
X79900742Y-118290771D02*
X79853123Y-118386009D01*
X79853123Y-118386009D02*
X79853123Y-118481247D01*
X79853123Y-118481247D02*
X80329313Y-118576485D01*
X78376932Y-117909819D02*
X78376932Y-118624104D01*
X78376932Y-118624104D02*
X78424551Y-118766961D01*
X78424551Y-118766961D02*
X78519789Y-118862200D01*
X78519789Y-118862200D02*
X78662646Y-118909819D01*
X78662646Y-118909819D02*
X78757884Y-118909819D01*
X77900741Y-118909819D02*
X77900741Y-117909819D01*
X77900741Y-117909819D02*
X77519789Y-117909819D01*
X77519789Y-117909819D02*
X77424551Y-117957438D01*
X77424551Y-117957438D02*
X77376932Y-118005057D01*
X77376932Y-118005057D02*
X77329313Y-118100295D01*
X77329313Y-118100295D02*
X77329313Y-118243152D01*
X77329313Y-118243152D02*
X77376932Y-118338390D01*
X77376932Y-118338390D02*
X77424551Y-118386009D01*
X77424551Y-118386009D02*
X77519789Y-118433628D01*
X77519789Y-118433628D02*
X77900741Y-118433628D01*
X75567408Y-118814580D02*
X75615027Y-118862200D01*
X75615027Y-118862200D02*
X75757884Y-118909819D01*
X75757884Y-118909819D02*
X75853122Y-118909819D01*
X75853122Y-118909819D02*
X75995979Y-118862200D01*
X75995979Y-118862200D02*
X76091217Y-118766961D01*
X76091217Y-118766961D02*
X76138836Y-118671723D01*
X76138836Y-118671723D02*
X76186455Y-118481247D01*
X76186455Y-118481247D02*
X76186455Y-118338390D01*
X76186455Y-118338390D02*
X76138836Y-118147914D01*
X76138836Y-118147914D02*
X76091217Y-118052676D01*
X76091217Y-118052676D02*
X75995979Y-117957438D01*
X75995979Y-117957438D02*
X75853122Y-117909819D01*
X75853122Y-117909819D02*
X75757884Y-117909819D01*
X75757884Y-117909819D02*
X75615027Y-117957438D01*
X75615027Y-117957438D02*
X75567408Y-118005057D01*
X75138836Y-117909819D02*
X75138836Y-118719342D01*
X75138836Y-118719342D02*
X75091217Y-118814580D01*
X75091217Y-118814580D02*
X75043598Y-118862200D01*
X75043598Y-118862200D02*
X74948360Y-118909819D01*
X74948360Y-118909819D02*
X74757884Y-118909819D01*
X74757884Y-118909819D02*
X74662646Y-118862200D01*
X74662646Y-118862200D02*
X74615027Y-118814580D01*
X74615027Y-118814580D02*
X74567408Y-118719342D01*
X74567408Y-118719342D02*
X74567408Y-117909819D01*
X74234074Y-117909819D02*
X73662646Y-117909819D01*
X73948360Y-118909819D02*
X73948360Y-117909819D01*
X73329312Y-118814580D02*
X73281693Y-118862200D01*
X73281693Y-118862200D02*
X73329312Y-118909819D01*
X73329312Y-118909819D02*
X73376931Y-118862200D01*
X73376931Y-118862200D02*
X73329312Y-118814580D01*
X73329312Y-118814580D02*
X73329312Y-118909819D01*
X122234077Y-119853152D02*
X121853125Y-119853152D01*
X122091220Y-120519819D02*
X122091220Y-119662676D01*
X122091220Y-119662676D02*
X122043601Y-119567438D01*
X122043601Y-119567438D02*
X121948363Y-119519819D01*
X121948363Y-119519819D02*
X121853125Y-119519819D01*
X121376934Y-120519819D02*
X121472172Y-120472200D01*
X121472172Y-120472200D02*
X121519791Y-120424580D01*
X121519791Y-120424580D02*
X121567410Y-120329342D01*
X121567410Y-120329342D02*
X121567410Y-120043628D01*
X121567410Y-120043628D02*
X121519791Y-119948390D01*
X121519791Y-119948390D02*
X121472172Y-119900771D01*
X121472172Y-119900771D02*
X121376934Y-119853152D01*
X121376934Y-119853152D02*
X121234077Y-119853152D01*
X121234077Y-119853152D02*
X121138839Y-119900771D01*
X121138839Y-119900771D02*
X121091220Y-119948390D01*
X121091220Y-119948390D02*
X121043601Y-120043628D01*
X121043601Y-120043628D02*
X121043601Y-120329342D01*
X121043601Y-120329342D02*
X121091220Y-120424580D01*
X121091220Y-120424580D02*
X121138839Y-120472200D01*
X121138839Y-120472200D02*
X121234077Y-120519819D01*
X121234077Y-120519819D02*
X121376934Y-120519819D01*
X120615029Y-120519819D02*
X120615029Y-119853152D01*
X120615029Y-120043628D02*
X120567410Y-119948390D01*
X120567410Y-119948390D02*
X120519791Y-119900771D01*
X120519791Y-119900771D02*
X120424553Y-119853152D01*
X120424553Y-119853152D02*
X120329315Y-119853152D01*
X119234076Y-120519819D02*
X119234076Y-119519819D01*
X119234076Y-119519819D02*
X118900743Y-120234104D01*
X118900743Y-120234104D02*
X118567410Y-119519819D01*
X118567410Y-119519819D02*
X118567410Y-120519819D01*
X117615029Y-119519819D02*
X118091219Y-119519819D01*
X118091219Y-119519819D02*
X118138838Y-119996009D01*
X118138838Y-119996009D02*
X118091219Y-119948390D01*
X118091219Y-119948390D02*
X117995981Y-119900771D01*
X117995981Y-119900771D02*
X117757886Y-119900771D01*
X117757886Y-119900771D02*
X117662648Y-119948390D01*
X117662648Y-119948390D02*
X117615029Y-119996009D01*
X117615029Y-119996009D02*
X117567410Y-120091247D01*
X117567410Y-120091247D02*
X117567410Y-120329342D01*
X117567410Y-120329342D02*
X117615029Y-120424580D01*
X117615029Y-120424580D02*
X117662648Y-120472200D01*
X117662648Y-120472200D02*
X117757886Y-120519819D01*
X117757886Y-120519819D02*
X117995981Y-120519819D01*
X117995981Y-120519819D02*
X118091219Y-120472200D01*
X118091219Y-120472200D02*
X118138838Y-120424580D01*
X116376933Y-120424580D02*
X116329314Y-120472200D01*
X116329314Y-120472200D02*
X116376933Y-120519819D01*
X116376933Y-120519819D02*
X116424552Y-120472200D01*
X116424552Y-120472200D02*
X116376933Y-120424580D01*
X116376933Y-120424580D02*
X116376933Y-120519819D01*
X116376933Y-119900771D02*
X116329314Y-119948390D01*
X116329314Y-119948390D02*
X116376933Y-119996009D01*
X116376933Y-119996009D02*
X116424552Y-119948390D01*
X116424552Y-119948390D02*
X116376933Y-119900771D01*
X116376933Y-119900771D02*
X116376933Y-119996009D01*
X115138838Y-120519819D02*
X115138838Y-119519819D01*
X115138838Y-119519819D02*
X114900743Y-119519819D01*
X114900743Y-119519819D02*
X114757886Y-119567438D01*
X114757886Y-119567438D02*
X114662648Y-119662676D01*
X114662648Y-119662676D02*
X114615029Y-119757914D01*
X114615029Y-119757914D02*
X114567410Y-119948390D01*
X114567410Y-119948390D02*
X114567410Y-120091247D01*
X114567410Y-120091247D02*
X114615029Y-120281723D01*
X114615029Y-120281723D02*
X114662648Y-120376961D01*
X114662648Y-120376961D02*
X114757886Y-120472200D01*
X114757886Y-120472200D02*
X114900743Y-120519819D01*
X114900743Y-120519819D02*
X115138838Y-120519819D01*
X113615029Y-120519819D02*
X114186457Y-120519819D01*
X113900743Y-120519819D02*
X113900743Y-119519819D01*
X113900743Y-119519819D02*
X113995981Y-119662676D01*
X113995981Y-119662676D02*
X114091219Y-119757914D01*
X114091219Y-119757914D02*
X114186457Y-119805533D01*
X113186457Y-120138866D02*
X112424553Y-120138866D01*
X111948362Y-120519819D02*
X111948362Y-119519819D01*
X111948362Y-119519819D02*
X111710267Y-119519819D01*
X111710267Y-119519819D02*
X111567410Y-119567438D01*
X111567410Y-119567438D02*
X111472172Y-119662676D01*
X111472172Y-119662676D02*
X111424553Y-119757914D01*
X111424553Y-119757914D02*
X111376934Y-119948390D01*
X111376934Y-119948390D02*
X111376934Y-120091247D01*
X111376934Y-120091247D02*
X111424553Y-120281723D01*
X111424553Y-120281723D02*
X111472172Y-120376961D01*
X111472172Y-120376961D02*
X111567410Y-120472200D01*
X111567410Y-120472200D02*
X111710267Y-120519819D01*
X111710267Y-120519819D02*
X111948362Y-120519819D01*
X110519791Y-119519819D02*
X110710267Y-119519819D01*
X110710267Y-119519819D02*
X110805505Y-119567438D01*
X110805505Y-119567438D02*
X110853124Y-119615057D01*
X110853124Y-119615057D02*
X110948362Y-119757914D01*
X110948362Y-119757914D02*
X110995981Y-119948390D01*
X110995981Y-119948390D02*
X110995981Y-120329342D01*
X110995981Y-120329342D02*
X110948362Y-120424580D01*
X110948362Y-120424580D02*
X110900743Y-120472200D01*
X110900743Y-120472200D02*
X110805505Y-120519819D01*
X110805505Y-120519819D02*
X110615029Y-120519819D01*
X110615029Y-120519819D02*
X110519791Y-120472200D01*
X110519791Y-120472200D02*
X110472172Y-120424580D01*
X110472172Y-120424580D02*
X110424553Y-120329342D01*
X110424553Y-120329342D02*
X110424553Y-120091247D01*
X110424553Y-120091247D02*
X110472172Y-119996009D01*
X110472172Y-119996009D02*
X110519791Y-119948390D01*
X110519791Y-119948390D02*
X110615029Y-119900771D01*
X110615029Y-119900771D02*
X110805505Y-119900771D01*
X110805505Y-119900771D02*
X110900743Y-119948390D01*
X110900743Y-119948390D02*
X110948362Y-119996009D01*
X110948362Y-119996009D02*
X110995981Y-120091247D01*
X109234076Y-120519819D02*
X109234076Y-119519819D01*
X109234076Y-119519819D02*
X108995981Y-119519819D01*
X108995981Y-119519819D02*
X108853124Y-119567438D01*
X108853124Y-119567438D02*
X108757886Y-119662676D01*
X108757886Y-119662676D02*
X108710267Y-119757914D01*
X108710267Y-119757914D02*
X108662648Y-119948390D01*
X108662648Y-119948390D02*
X108662648Y-120091247D01*
X108662648Y-120091247D02*
X108710267Y-120281723D01*
X108710267Y-120281723D02*
X108757886Y-120376961D01*
X108757886Y-120376961D02*
X108853124Y-120472200D01*
X108853124Y-120472200D02*
X108995981Y-120519819D01*
X108995981Y-120519819D02*
X109234076Y-120519819D01*
X108234076Y-120519819D02*
X108234076Y-119519819D01*
X107567410Y-119519819D02*
X107376934Y-119519819D01*
X107376934Y-119519819D02*
X107281696Y-119567438D01*
X107281696Y-119567438D02*
X107186458Y-119662676D01*
X107186458Y-119662676D02*
X107138839Y-119853152D01*
X107138839Y-119853152D02*
X107138839Y-120186485D01*
X107138839Y-120186485D02*
X107186458Y-120376961D01*
X107186458Y-120376961D02*
X107281696Y-120472200D01*
X107281696Y-120472200D02*
X107376934Y-120519819D01*
X107376934Y-120519819D02*
X107567410Y-120519819D01*
X107567410Y-120519819D02*
X107662648Y-120472200D01*
X107662648Y-120472200D02*
X107757886Y-120376961D01*
X107757886Y-120376961D02*
X107805505Y-120186485D01*
X107805505Y-120186485D02*
X107805505Y-119853152D01*
X107805505Y-119853152D02*
X107757886Y-119662676D01*
X107757886Y-119662676D02*
X107662648Y-119567438D01*
X107662648Y-119567438D02*
X107567410Y-119519819D01*
X106710267Y-120519819D02*
X106710267Y-119519819D01*
X106710267Y-119519819D02*
X106472172Y-119519819D01*
X106472172Y-119519819D02*
X106329315Y-119567438D01*
X106329315Y-119567438D02*
X106234077Y-119662676D01*
X106234077Y-119662676D02*
X106186458Y-119757914D01*
X106186458Y-119757914D02*
X106138839Y-119948390D01*
X106138839Y-119948390D02*
X106138839Y-120091247D01*
X106138839Y-120091247D02*
X106186458Y-120281723D01*
X106186458Y-120281723D02*
X106234077Y-120376961D01*
X106234077Y-120376961D02*
X106329315Y-120472200D01*
X106329315Y-120472200D02*
X106472172Y-120519819D01*
X106472172Y-120519819D02*
X106710267Y-120519819D01*
X105710267Y-119996009D02*
X105376934Y-119996009D01*
X105234077Y-120519819D02*
X105710267Y-120519819D01*
X105710267Y-120519819D02*
X105710267Y-119519819D01*
X105710267Y-119519819D02*
X105234077Y-119519819D01*
X104805505Y-120424580D02*
X104757886Y-120472200D01*
X104757886Y-120472200D02*
X104805505Y-120519819D01*
X104805505Y-120519819D02*
X104853124Y-120472200D01*
X104853124Y-120472200D02*
X104805505Y-120424580D01*
X104805505Y-120424580D02*
X104805505Y-120519819D01*
X103567410Y-120519819D02*
X103567410Y-119519819D01*
X103567410Y-119519819D02*
X103234077Y-120234104D01*
X103234077Y-120234104D02*
X102900744Y-119519819D01*
X102900744Y-119519819D02*
X102900744Y-120519819D01*
X102472172Y-120472200D02*
X102329315Y-120519819D01*
X102329315Y-120519819D02*
X102091220Y-120519819D01*
X102091220Y-120519819D02*
X101995982Y-120472200D01*
X101995982Y-120472200D02*
X101948363Y-120424580D01*
X101948363Y-120424580D02*
X101900744Y-120329342D01*
X101900744Y-120329342D02*
X101900744Y-120234104D01*
X101900744Y-120234104D02*
X101948363Y-120138866D01*
X101948363Y-120138866D02*
X101995982Y-120091247D01*
X101995982Y-120091247D02*
X102091220Y-120043628D01*
X102091220Y-120043628D02*
X102281696Y-119996009D01*
X102281696Y-119996009D02*
X102376934Y-119948390D01*
X102376934Y-119948390D02*
X102424553Y-119900771D01*
X102424553Y-119900771D02*
X102472172Y-119805533D01*
X102472172Y-119805533D02*
X102472172Y-119710295D01*
X102472172Y-119710295D02*
X102424553Y-119615057D01*
X102424553Y-119615057D02*
X102376934Y-119567438D01*
X102376934Y-119567438D02*
X102281696Y-119519819D01*
X102281696Y-119519819D02*
X102043601Y-119519819D01*
X102043601Y-119519819D02*
X101900744Y-119567438D01*
X101567410Y-119519819D02*
X100900744Y-120519819D01*
X100900744Y-119519819D02*
X101567410Y-120519819D01*
X99757886Y-120519819D02*
X99757886Y-119519819D01*
X99757886Y-119519819D02*
X99424553Y-120234104D01*
X99424553Y-120234104D02*
X99091220Y-119519819D01*
X99091220Y-119519819D02*
X99091220Y-120519819D01*
X98472172Y-120519819D02*
X98567410Y-120472200D01*
X98567410Y-120472200D02*
X98615029Y-120424580D01*
X98615029Y-120424580D02*
X98662648Y-120329342D01*
X98662648Y-120329342D02*
X98662648Y-120043628D01*
X98662648Y-120043628D02*
X98615029Y-119948390D01*
X98615029Y-119948390D02*
X98567410Y-119900771D01*
X98567410Y-119900771D02*
X98472172Y-119853152D01*
X98472172Y-119853152D02*
X98329315Y-119853152D01*
X98329315Y-119853152D02*
X98234077Y-119900771D01*
X98234077Y-119900771D02*
X98186458Y-119948390D01*
X98186458Y-119948390D02*
X98138839Y-120043628D01*
X98138839Y-120043628D02*
X98138839Y-120329342D01*
X98138839Y-120329342D02*
X98186458Y-120424580D01*
X98186458Y-120424580D02*
X98234077Y-120472200D01*
X98234077Y-120472200D02*
X98329315Y-120519819D01*
X98329315Y-120519819D02*
X98472172Y-120519819D01*
X97281696Y-120519819D02*
X97281696Y-119519819D01*
X97281696Y-120472200D02*
X97376934Y-120519819D01*
X97376934Y-120519819D02*
X97567410Y-120519819D01*
X97567410Y-120519819D02*
X97662648Y-120472200D01*
X97662648Y-120472200D02*
X97710267Y-120424580D01*
X97710267Y-120424580D02*
X97757886Y-120329342D01*
X97757886Y-120329342D02*
X97757886Y-120043628D01*
X97757886Y-120043628D02*
X97710267Y-119948390D01*
X97710267Y-119948390D02*
X97662648Y-119900771D01*
X97662648Y-119900771D02*
X97567410Y-119853152D01*
X97567410Y-119853152D02*
X97376934Y-119853152D01*
X97376934Y-119853152D02*
X97281696Y-119900771D01*
X96424553Y-120472200D02*
X96519791Y-120519819D01*
X96519791Y-120519819D02*
X96710267Y-120519819D01*
X96710267Y-120519819D02*
X96805505Y-120472200D01*
X96805505Y-120472200D02*
X96853124Y-120376961D01*
X96853124Y-120376961D02*
X96853124Y-119996009D01*
X96853124Y-119996009D02*
X96805505Y-119900771D01*
X96805505Y-119900771D02*
X96710267Y-119853152D01*
X96710267Y-119853152D02*
X96519791Y-119853152D01*
X96519791Y-119853152D02*
X96424553Y-119900771D01*
X96424553Y-119900771D02*
X96376934Y-119996009D01*
X96376934Y-119996009D02*
X96376934Y-120091247D01*
X96376934Y-120091247D02*
X96853124Y-120186485D01*
X94900743Y-119519819D02*
X94900743Y-120234104D01*
X94900743Y-120234104D02*
X94948362Y-120376961D01*
X94948362Y-120376961D02*
X95043600Y-120472200D01*
X95043600Y-120472200D02*
X95186457Y-120519819D01*
X95186457Y-120519819D02*
X95281695Y-120519819D01*
X94424552Y-120519819D02*
X94424552Y-119519819D01*
X94424552Y-119519819D02*
X94043600Y-119519819D01*
X94043600Y-119519819D02*
X93948362Y-119567438D01*
X93948362Y-119567438D02*
X93900743Y-119615057D01*
X93900743Y-119615057D02*
X93853124Y-119710295D01*
X93853124Y-119710295D02*
X93853124Y-119853152D01*
X93853124Y-119853152D02*
X93900743Y-119948390D01*
X93900743Y-119948390D02*
X93948362Y-119996009D01*
X93948362Y-119996009D02*
X94043600Y-120043628D01*
X94043600Y-120043628D02*
X94424552Y-120043628D01*
X92091219Y-120424580D02*
X92138838Y-120472200D01*
X92138838Y-120472200D02*
X92281695Y-120519819D01*
X92281695Y-120519819D02*
X92376933Y-120519819D01*
X92376933Y-120519819D02*
X92519790Y-120472200D01*
X92519790Y-120472200D02*
X92615028Y-120376961D01*
X92615028Y-120376961D02*
X92662647Y-120281723D01*
X92662647Y-120281723D02*
X92710266Y-120091247D01*
X92710266Y-120091247D02*
X92710266Y-119948390D01*
X92710266Y-119948390D02*
X92662647Y-119757914D01*
X92662647Y-119757914D02*
X92615028Y-119662676D01*
X92615028Y-119662676D02*
X92519790Y-119567438D01*
X92519790Y-119567438D02*
X92376933Y-119519819D01*
X92376933Y-119519819D02*
X92281695Y-119519819D01*
X92281695Y-119519819D02*
X92138838Y-119567438D01*
X92138838Y-119567438D02*
X92091219Y-119615057D01*
X91662647Y-119519819D02*
X91662647Y-120329342D01*
X91662647Y-120329342D02*
X91615028Y-120424580D01*
X91615028Y-120424580D02*
X91567409Y-120472200D01*
X91567409Y-120472200D02*
X91472171Y-120519819D01*
X91472171Y-120519819D02*
X91281695Y-120519819D01*
X91281695Y-120519819D02*
X91186457Y-120472200D01*
X91186457Y-120472200D02*
X91138838Y-120424580D01*
X91138838Y-120424580D02*
X91091219Y-120329342D01*
X91091219Y-120329342D02*
X91091219Y-119519819D01*
X90757885Y-119519819D02*
X90186457Y-119519819D01*
X90472171Y-120519819D02*
X90472171Y-119519819D01*
X89853123Y-120424580D02*
X89805504Y-120472200D01*
X89805504Y-120472200D02*
X89853123Y-120519819D01*
X89853123Y-120519819D02*
X89900742Y-120472200D01*
X89900742Y-120472200D02*
X89853123Y-120424580D01*
X89853123Y-120424580D02*
X89853123Y-120519819D01*
X87091218Y-120519819D02*
X87091218Y-119519819D01*
X87091218Y-119519819D02*
X86757885Y-120234104D01*
X86757885Y-120234104D02*
X86424552Y-119519819D01*
X86424552Y-119519819D02*
X86424552Y-120519819D01*
X85472171Y-119519819D02*
X85948361Y-119519819D01*
X85948361Y-119519819D02*
X85995980Y-119996009D01*
X85995980Y-119996009D02*
X85948361Y-119948390D01*
X85948361Y-119948390D02*
X85853123Y-119900771D01*
X85853123Y-119900771D02*
X85615028Y-119900771D01*
X85615028Y-119900771D02*
X85519790Y-119948390D01*
X85519790Y-119948390D02*
X85472171Y-119996009D01*
X85472171Y-119996009D02*
X85424552Y-120091247D01*
X85424552Y-120091247D02*
X85424552Y-120329342D01*
X85424552Y-120329342D02*
X85472171Y-120424580D01*
X85472171Y-120424580D02*
X85519790Y-120472200D01*
X85519790Y-120472200D02*
X85615028Y-120519819D01*
X85615028Y-120519819D02*
X85853123Y-120519819D01*
X85853123Y-120519819D02*
X85948361Y-120472200D01*
X85948361Y-120472200D02*
X85995980Y-120424580D01*
X84234075Y-120519819D02*
X84234075Y-119519819D01*
X84234075Y-119519819D02*
X83900742Y-120234104D01*
X83900742Y-120234104D02*
X83567409Y-119519819D01*
X83567409Y-119519819D02*
X83567409Y-120519819D01*
X82948361Y-120519819D02*
X83043599Y-120472200D01*
X83043599Y-120472200D02*
X83091218Y-120424580D01*
X83091218Y-120424580D02*
X83138837Y-120329342D01*
X83138837Y-120329342D02*
X83138837Y-120043628D01*
X83138837Y-120043628D02*
X83091218Y-119948390D01*
X83091218Y-119948390D02*
X83043599Y-119900771D01*
X83043599Y-119900771D02*
X82948361Y-119853152D01*
X82948361Y-119853152D02*
X82805504Y-119853152D01*
X82805504Y-119853152D02*
X82710266Y-119900771D01*
X82710266Y-119900771D02*
X82662647Y-119948390D01*
X82662647Y-119948390D02*
X82615028Y-120043628D01*
X82615028Y-120043628D02*
X82615028Y-120329342D01*
X82615028Y-120329342D02*
X82662647Y-120424580D01*
X82662647Y-120424580D02*
X82710266Y-120472200D01*
X82710266Y-120472200D02*
X82805504Y-120519819D01*
X82805504Y-120519819D02*
X82948361Y-120519819D01*
X81757885Y-120519819D02*
X81757885Y-119519819D01*
X81757885Y-120472200D02*
X81853123Y-120519819D01*
X81853123Y-120519819D02*
X82043599Y-120519819D01*
X82043599Y-120519819D02*
X82138837Y-120472200D01*
X82138837Y-120472200D02*
X82186456Y-120424580D01*
X82186456Y-120424580D02*
X82234075Y-120329342D01*
X82234075Y-120329342D02*
X82234075Y-120043628D01*
X82234075Y-120043628D02*
X82186456Y-119948390D01*
X82186456Y-119948390D02*
X82138837Y-119900771D01*
X82138837Y-119900771D02*
X82043599Y-119853152D01*
X82043599Y-119853152D02*
X81853123Y-119853152D01*
X81853123Y-119853152D02*
X81757885Y-119900771D01*
X80900742Y-120472200D02*
X80995980Y-120519819D01*
X80995980Y-120519819D02*
X81186456Y-120519819D01*
X81186456Y-120519819D02*
X81281694Y-120472200D01*
X81281694Y-120472200D02*
X81329313Y-120376961D01*
X81329313Y-120376961D02*
X81329313Y-119996009D01*
X81329313Y-119996009D02*
X81281694Y-119900771D01*
X81281694Y-119900771D02*
X81186456Y-119853152D01*
X81186456Y-119853152D02*
X80995980Y-119853152D01*
X80995980Y-119853152D02*
X80900742Y-119900771D01*
X80900742Y-119900771D02*
X80853123Y-119996009D01*
X80853123Y-119996009D02*
X80853123Y-120091247D01*
X80853123Y-120091247D02*
X81329313Y-120186485D01*
X79376932Y-119519819D02*
X79376932Y-120234104D01*
X79376932Y-120234104D02*
X79424551Y-120376961D01*
X79424551Y-120376961D02*
X79519789Y-120472200D01*
X79519789Y-120472200D02*
X79662646Y-120519819D01*
X79662646Y-120519819D02*
X79757884Y-120519819D01*
X78900741Y-120519819D02*
X78900741Y-119519819D01*
X78900741Y-119519819D02*
X78519789Y-119519819D01*
X78519789Y-119519819D02*
X78424551Y-119567438D01*
X78424551Y-119567438D02*
X78376932Y-119615057D01*
X78376932Y-119615057D02*
X78329313Y-119710295D01*
X78329313Y-119710295D02*
X78329313Y-119853152D01*
X78329313Y-119853152D02*
X78376932Y-119948390D01*
X78376932Y-119948390D02*
X78424551Y-119996009D01*
X78424551Y-119996009D02*
X78519789Y-120043628D01*
X78519789Y-120043628D02*
X78900741Y-120043628D01*
X77186455Y-120472200D02*
X77043598Y-120519819D01*
X77043598Y-120519819D02*
X76805503Y-120519819D01*
X76805503Y-120519819D02*
X76710265Y-120472200D01*
X76710265Y-120472200D02*
X76662646Y-120424580D01*
X76662646Y-120424580D02*
X76615027Y-120329342D01*
X76615027Y-120329342D02*
X76615027Y-120234104D01*
X76615027Y-120234104D02*
X76662646Y-120138866D01*
X76662646Y-120138866D02*
X76710265Y-120091247D01*
X76710265Y-120091247D02*
X76805503Y-120043628D01*
X76805503Y-120043628D02*
X76995979Y-119996009D01*
X76995979Y-119996009D02*
X77091217Y-119948390D01*
X77091217Y-119948390D02*
X77138836Y-119900771D01*
X77138836Y-119900771D02*
X77186455Y-119805533D01*
X77186455Y-119805533D02*
X77186455Y-119710295D01*
X77186455Y-119710295D02*
X77138836Y-119615057D01*
X77138836Y-119615057D02*
X77091217Y-119567438D01*
X77091217Y-119567438D02*
X76995979Y-119519819D01*
X76995979Y-119519819D02*
X76757884Y-119519819D01*
X76757884Y-119519819D02*
X76615027Y-119567438D01*
X76186455Y-120519819D02*
X76186455Y-119519819D01*
X76186455Y-119996009D02*
X75615027Y-119996009D01*
X75615027Y-120519819D02*
X75615027Y-119519819D01*
X74948360Y-119519819D02*
X74757884Y-119519819D01*
X74757884Y-119519819D02*
X74662646Y-119567438D01*
X74662646Y-119567438D02*
X74567408Y-119662676D01*
X74567408Y-119662676D02*
X74519789Y-119853152D01*
X74519789Y-119853152D02*
X74519789Y-120186485D01*
X74519789Y-120186485D02*
X74567408Y-120376961D01*
X74567408Y-120376961D02*
X74662646Y-120472200D01*
X74662646Y-120472200D02*
X74757884Y-120519819D01*
X74757884Y-120519819D02*
X74948360Y-120519819D01*
X74948360Y-120519819D02*
X75043598Y-120472200D01*
X75043598Y-120472200D02*
X75138836Y-120376961D01*
X75138836Y-120376961D02*
X75186455Y-120186485D01*
X75186455Y-120186485D02*
X75186455Y-119853152D01*
X75186455Y-119853152D02*
X75138836Y-119662676D01*
X75138836Y-119662676D02*
X75043598Y-119567438D01*
X75043598Y-119567438D02*
X74948360Y-119519819D01*
X73519789Y-120519819D02*
X73853122Y-120043628D01*
X74091217Y-120519819D02*
X74091217Y-119519819D01*
X74091217Y-119519819D02*
X73710265Y-119519819D01*
X73710265Y-119519819D02*
X73615027Y-119567438D01*
X73615027Y-119567438D02*
X73567408Y-119615057D01*
X73567408Y-119615057D02*
X73519789Y-119710295D01*
X73519789Y-119710295D02*
X73519789Y-119853152D01*
X73519789Y-119853152D02*
X73567408Y-119948390D01*
X73567408Y-119948390D02*
X73615027Y-119996009D01*
X73615027Y-119996009D02*
X73710265Y-120043628D01*
X73710265Y-120043628D02*
X74091217Y-120043628D01*
X73234074Y-119519819D02*
X72662646Y-119519819D01*
X72948360Y-120519819D02*
X72948360Y-119519819D01*
X72329312Y-120424580D02*
X72281693Y-120472200D01*
X72281693Y-120472200D02*
X72329312Y-120519819D01*
X72329312Y-120519819D02*
X72376931Y-120472200D01*
X72376931Y-120472200D02*
X72329312Y-120424580D01*
X72329312Y-120424580D02*
X72329312Y-120519819D01*
X98963220Y-114489819D02*
X98963220Y-113489819D01*
X98963220Y-113489819D02*
X98629887Y-114204104D01*
X98629887Y-114204104D02*
X98296554Y-113489819D01*
X98296554Y-113489819D02*
X98296554Y-114489819D01*
X97867982Y-114442200D02*
X97725125Y-114489819D01*
X97725125Y-114489819D02*
X97487030Y-114489819D01*
X97487030Y-114489819D02*
X97391792Y-114442200D01*
X97391792Y-114442200D02*
X97344173Y-114394580D01*
X97344173Y-114394580D02*
X97296554Y-114299342D01*
X97296554Y-114299342D02*
X97296554Y-114204104D01*
X97296554Y-114204104D02*
X97344173Y-114108866D01*
X97344173Y-114108866D02*
X97391792Y-114061247D01*
X97391792Y-114061247D02*
X97487030Y-114013628D01*
X97487030Y-114013628D02*
X97677506Y-113966009D01*
X97677506Y-113966009D02*
X97772744Y-113918390D01*
X97772744Y-113918390D02*
X97820363Y-113870771D01*
X97820363Y-113870771D02*
X97867982Y-113775533D01*
X97867982Y-113775533D02*
X97867982Y-113680295D01*
X97867982Y-113680295D02*
X97820363Y-113585057D01*
X97820363Y-113585057D02*
X97772744Y-113537438D01*
X97772744Y-113537438D02*
X97677506Y-113489819D01*
X97677506Y-113489819D02*
X97439411Y-113489819D01*
X97439411Y-113489819D02*
X97296554Y-113537438D01*
X96963220Y-113489819D02*
X96296554Y-114489819D01*
X96296554Y-113489819D02*
X96963220Y-114489819D01*
X95153696Y-114489819D02*
X95153696Y-113489819D01*
X95153696Y-113489819D02*
X94820363Y-114204104D01*
X94820363Y-114204104D02*
X94487030Y-113489819D01*
X94487030Y-113489819D02*
X94487030Y-114489819D01*
X93867982Y-114489819D02*
X93963220Y-114442200D01*
X93963220Y-114442200D02*
X94010839Y-114394580D01*
X94010839Y-114394580D02*
X94058458Y-114299342D01*
X94058458Y-114299342D02*
X94058458Y-114013628D01*
X94058458Y-114013628D02*
X94010839Y-113918390D01*
X94010839Y-113918390D02*
X93963220Y-113870771D01*
X93963220Y-113870771D02*
X93867982Y-113823152D01*
X93867982Y-113823152D02*
X93725125Y-113823152D01*
X93725125Y-113823152D02*
X93629887Y-113870771D01*
X93629887Y-113870771D02*
X93582268Y-113918390D01*
X93582268Y-113918390D02*
X93534649Y-114013628D01*
X93534649Y-114013628D02*
X93534649Y-114299342D01*
X93534649Y-114299342D02*
X93582268Y-114394580D01*
X93582268Y-114394580D02*
X93629887Y-114442200D01*
X93629887Y-114442200D02*
X93725125Y-114489819D01*
X93725125Y-114489819D02*
X93867982Y-114489819D01*
X92677506Y-114489819D02*
X92677506Y-113489819D01*
X92677506Y-114442200D02*
X92772744Y-114489819D01*
X92772744Y-114489819D02*
X92963220Y-114489819D01*
X92963220Y-114489819D02*
X93058458Y-114442200D01*
X93058458Y-114442200D02*
X93106077Y-114394580D01*
X93106077Y-114394580D02*
X93153696Y-114299342D01*
X93153696Y-114299342D02*
X93153696Y-114013628D01*
X93153696Y-114013628D02*
X93106077Y-113918390D01*
X93106077Y-113918390D02*
X93058458Y-113870771D01*
X93058458Y-113870771D02*
X92963220Y-113823152D01*
X92963220Y-113823152D02*
X92772744Y-113823152D01*
X92772744Y-113823152D02*
X92677506Y-113870771D01*
X91820363Y-114442200D02*
X91915601Y-114489819D01*
X91915601Y-114489819D02*
X92106077Y-114489819D01*
X92106077Y-114489819D02*
X92201315Y-114442200D01*
X92201315Y-114442200D02*
X92248934Y-114346961D01*
X92248934Y-114346961D02*
X92248934Y-113966009D01*
X92248934Y-113966009D02*
X92201315Y-113870771D01*
X92201315Y-113870771D02*
X92106077Y-113823152D01*
X92106077Y-113823152D02*
X91915601Y-113823152D01*
X91915601Y-113823152D02*
X91820363Y-113870771D01*
X91820363Y-113870771D02*
X91772744Y-113966009D01*
X91772744Y-113966009D02*
X91772744Y-114061247D01*
X91772744Y-114061247D02*
X92248934Y-114156485D01*
X72463220Y-114489819D02*
X72463220Y-113489819D01*
X72463220Y-113489819D02*
X72129887Y-114204104D01*
X72129887Y-114204104D02*
X71796554Y-113489819D01*
X71796554Y-113489819D02*
X71796554Y-114489819D01*
X70844173Y-113489819D02*
X71320363Y-113489819D01*
X71320363Y-113489819D02*
X71367982Y-113966009D01*
X71367982Y-113966009D02*
X71320363Y-113918390D01*
X71320363Y-113918390D02*
X71225125Y-113870771D01*
X71225125Y-113870771D02*
X70987030Y-113870771D01*
X70987030Y-113870771D02*
X70891792Y-113918390D01*
X70891792Y-113918390D02*
X70844173Y-113966009D01*
X70844173Y-113966009D02*
X70796554Y-114061247D01*
X70796554Y-114061247D02*
X70796554Y-114299342D01*
X70796554Y-114299342D02*
X70844173Y-114394580D01*
X70844173Y-114394580D02*
X70891792Y-114442200D01*
X70891792Y-114442200D02*
X70987030Y-114489819D01*
X70987030Y-114489819D02*
X71225125Y-114489819D01*
X71225125Y-114489819D02*
X71320363Y-114442200D01*
X71320363Y-114442200D02*
X71367982Y-114394580D01*
X69606077Y-114489819D02*
X69606077Y-113489819D01*
X69606077Y-113489819D02*
X69272744Y-114204104D01*
X69272744Y-114204104D02*
X68939411Y-113489819D01*
X68939411Y-113489819D02*
X68939411Y-114489819D01*
X68320363Y-114489819D02*
X68415601Y-114442200D01*
X68415601Y-114442200D02*
X68463220Y-114394580D01*
X68463220Y-114394580D02*
X68510839Y-114299342D01*
X68510839Y-114299342D02*
X68510839Y-114013628D01*
X68510839Y-114013628D02*
X68463220Y-113918390D01*
X68463220Y-113918390D02*
X68415601Y-113870771D01*
X68415601Y-113870771D02*
X68320363Y-113823152D01*
X68320363Y-113823152D02*
X68177506Y-113823152D01*
X68177506Y-113823152D02*
X68082268Y-113870771D01*
X68082268Y-113870771D02*
X68034649Y-113918390D01*
X68034649Y-113918390D02*
X67987030Y-114013628D01*
X67987030Y-114013628D02*
X67987030Y-114299342D01*
X67987030Y-114299342D02*
X68034649Y-114394580D01*
X68034649Y-114394580D02*
X68082268Y-114442200D01*
X68082268Y-114442200D02*
X68177506Y-114489819D01*
X68177506Y-114489819D02*
X68320363Y-114489819D01*
X67129887Y-114489819D02*
X67129887Y-113489819D01*
X67129887Y-114442200D02*
X67225125Y-114489819D01*
X67225125Y-114489819D02*
X67415601Y-114489819D01*
X67415601Y-114489819D02*
X67510839Y-114442200D01*
X67510839Y-114442200D02*
X67558458Y-114394580D01*
X67558458Y-114394580D02*
X67606077Y-114299342D01*
X67606077Y-114299342D02*
X67606077Y-114013628D01*
X67606077Y-114013628D02*
X67558458Y-113918390D01*
X67558458Y-113918390D02*
X67510839Y-113870771D01*
X67510839Y-113870771D02*
X67415601Y-113823152D01*
X67415601Y-113823152D02*
X67225125Y-113823152D01*
X67225125Y-113823152D02*
X67129887Y-113870771D01*
X66272744Y-114442200D02*
X66367982Y-114489819D01*
X66367982Y-114489819D02*
X66558458Y-114489819D01*
X66558458Y-114489819D02*
X66653696Y-114442200D01*
X66653696Y-114442200D02*
X66701315Y-114346961D01*
X66701315Y-114346961D02*
X66701315Y-113966009D01*
X66701315Y-113966009D02*
X66653696Y-113870771D01*
X66653696Y-113870771D02*
X66558458Y-113823152D01*
X66558458Y-113823152D02*
X66367982Y-113823152D01*
X66367982Y-113823152D02*
X66272744Y-113870771D01*
X66272744Y-113870771D02*
X66225125Y-113966009D01*
X66225125Y-113966009D02*
X66225125Y-114061247D01*
X66225125Y-114061247D02*
X66701315Y-114156485D01*
X88769819Y-77552779D02*
X87769819Y-77552779D01*
X87769819Y-77552779D02*
X88484104Y-77886112D01*
X88484104Y-77886112D02*
X87769819Y-78219445D01*
X87769819Y-78219445D02*
X88769819Y-78219445D01*
X88722200Y-78648017D02*
X88769819Y-78790874D01*
X88769819Y-78790874D02*
X88769819Y-79028969D01*
X88769819Y-79028969D02*
X88722200Y-79124207D01*
X88722200Y-79124207D02*
X88674580Y-79171826D01*
X88674580Y-79171826D02*
X88579342Y-79219445D01*
X88579342Y-79219445D02*
X88484104Y-79219445D01*
X88484104Y-79219445D02*
X88388866Y-79171826D01*
X88388866Y-79171826D02*
X88341247Y-79124207D01*
X88341247Y-79124207D02*
X88293628Y-79028969D01*
X88293628Y-79028969D02*
X88246009Y-78838493D01*
X88246009Y-78838493D02*
X88198390Y-78743255D01*
X88198390Y-78743255D02*
X88150771Y-78695636D01*
X88150771Y-78695636D02*
X88055533Y-78648017D01*
X88055533Y-78648017D02*
X87960295Y-78648017D01*
X87960295Y-78648017D02*
X87865057Y-78695636D01*
X87865057Y-78695636D02*
X87817438Y-78743255D01*
X87817438Y-78743255D02*
X87769819Y-78838493D01*
X87769819Y-78838493D02*
X87769819Y-79076588D01*
X87769819Y-79076588D02*
X87817438Y-79219445D01*
X87769819Y-79552779D02*
X88769819Y-80219445D01*
X87769819Y-80219445D02*
X88769819Y-79552779D01*
X88769819Y-81362303D02*
X87769819Y-81362303D01*
X87769819Y-81362303D02*
X88769819Y-81933731D01*
X88769819Y-81933731D02*
X87769819Y-81933731D01*
X88769819Y-82552779D02*
X88722200Y-82457541D01*
X88722200Y-82457541D02*
X88674580Y-82409922D01*
X88674580Y-82409922D02*
X88579342Y-82362303D01*
X88579342Y-82362303D02*
X88293628Y-82362303D01*
X88293628Y-82362303D02*
X88198390Y-82409922D01*
X88198390Y-82409922D02*
X88150771Y-82457541D01*
X88150771Y-82457541D02*
X88103152Y-82552779D01*
X88103152Y-82552779D02*
X88103152Y-82695636D01*
X88103152Y-82695636D02*
X88150771Y-82790874D01*
X88150771Y-82790874D02*
X88198390Y-82838493D01*
X88198390Y-82838493D02*
X88293628Y-82886112D01*
X88293628Y-82886112D02*
X88579342Y-82886112D01*
X88579342Y-82886112D02*
X88674580Y-82838493D01*
X88674580Y-82838493D02*
X88722200Y-82790874D01*
X88722200Y-82790874D02*
X88769819Y-82695636D01*
X88769819Y-82695636D02*
X88769819Y-82552779D01*
X88769819Y-83314684D02*
X88103152Y-83314684D01*
X88293628Y-83314684D02*
X88198390Y-83362303D01*
X88198390Y-83362303D02*
X88150771Y-83409922D01*
X88150771Y-83409922D02*
X88103152Y-83505160D01*
X88103152Y-83505160D02*
X88103152Y-83600398D01*
X88769819Y-83933732D02*
X88103152Y-83933732D01*
X88198390Y-83933732D02*
X88150771Y-83981351D01*
X88150771Y-83981351D02*
X88103152Y-84076589D01*
X88103152Y-84076589D02*
X88103152Y-84219446D01*
X88103152Y-84219446D02*
X88150771Y-84314684D01*
X88150771Y-84314684D02*
X88246009Y-84362303D01*
X88246009Y-84362303D02*
X88769819Y-84362303D01*
X88246009Y-84362303D02*
X88150771Y-84409922D01*
X88150771Y-84409922D02*
X88103152Y-84505160D01*
X88103152Y-84505160D02*
X88103152Y-84648017D01*
X88103152Y-84648017D02*
X88150771Y-84743256D01*
X88150771Y-84743256D02*
X88246009Y-84790875D01*
X88246009Y-84790875D02*
X88769819Y-84790875D01*
X88769819Y-85695636D02*
X88246009Y-85695636D01*
X88246009Y-85695636D02*
X88150771Y-85648017D01*
X88150771Y-85648017D02*
X88103152Y-85552779D01*
X88103152Y-85552779D02*
X88103152Y-85362303D01*
X88103152Y-85362303D02*
X88150771Y-85267065D01*
X88722200Y-85695636D02*
X88769819Y-85600398D01*
X88769819Y-85600398D02*
X88769819Y-85362303D01*
X88769819Y-85362303D02*
X88722200Y-85267065D01*
X88722200Y-85267065D02*
X88626961Y-85219446D01*
X88626961Y-85219446D02*
X88531723Y-85219446D01*
X88531723Y-85219446D02*
X88436485Y-85267065D01*
X88436485Y-85267065D02*
X88388866Y-85362303D01*
X88388866Y-85362303D02*
X88388866Y-85600398D01*
X88388866Y-85600398D02*
X88341247Y-85695636D01*
X88769819Y-86314684D02*
X88722200Y-86219446D01*
X88722200Y-86219446D02*
X88626961Y-86171827D01*
X88626961Y-86171827D02*
X87769819Y-86171827D01*
X72463220Y-106989819D02*
X72463220Y-105989819D01*
X72463220Y-105989819D02*
X72129887Y-106704104D01*
X72129887Y-106704104D02*
X71796554Y-105989819D01*
X71796554Y-105989819D02*
X71796554Y-106989819D01*
X70844173Y-105989819D02*
X71320363Y-105989819D01*
X71320363Y-105989819D02*
X71367982Y-106466009D01*
X71367982Y-106466009D02*
X71320363Y-106418390D01*
X71320363Y-106418390D02*
X71225125Y-106370771D01*
X71225125Y-106370771D02*
X70987030Y-106370771D01*
X70987030Y-106370771D02*
X70891792Y-106418390D01*
X70891792Y-106418390D02*
X70844173Y-106466009D01*
X70844173Y-106466009D02*
X70796554Y-106561247D01*
X70796554Y-106561247D02*
X70796554Y-106799342D01*
X70796554Y-106799342D02*
X70844173Y-106894580D01*
X70844173Y-106894580D02*
X70891792Y-106942200D01*
X70891792Y-106942200D02*
X70987030Y-106989819D01*
X70987030Y-106989819D02*
X71225125Y-106989819D01*
X71225125Y-106989819D02*
X71320363Y-106942200D01*
X71320363Y-106942200D02*
X71367982Y-106894580D01*
X69606077Y-106989819D02*
X69606077Y-105989819D01*
X69606077Y-105989819D02*
X69272744Y-106704104D01*
X69272744Y-106704104D02*
X68939411Y-105989819D01*
X68939411Y-105989819D02*
X68939411Y-106989819D01*
X68320363Y-106989819D02*
X68415601Y-106942200D01*
X68415601Y-106942200D02*
X68463220Y-106894580D01*
X68463220Y-106894580D02*
X68510839Y-106799342D01*
X68510839Y-106799342D02*
X68510839Y-106513628D01*
X68510839Y-106513628D02*
X68463220Y-106418390D01*
X68463220Y-106418390D02*
X68415601Y-106370771D01*
X68415601Y-106370771D02*
X68320363Y-106323152D01*
X68320363Y-106323152D02*
X68177506Y-106323152D01*
X68177506Y-106323152D02*
X68082268Y-106370771D01*
X68082268Y-106370771D02*
X68034649Y-106418390D01*
X68034649Y-106418390D02*
X67987030Y-106513628D01*
X67987030Y-106513628D02*
X67987030Y-106799342D01*
X67987030Y-106799342D02*
X68034649Y-106894580D01*
X68034649Y-106894580D02*
X68082268Y-106942200D01*
X68082268Y-106942200D02*
X68177506Y-106989819D01*
X68177506Y-106989819D02*
X68320363Y-106989819D01*
X67129887Y-106989819D02*
X67129887Y-105989819D01*
X67129887Y-106942200D02*
X67225125Y-106989819D01*
X67225125Y-106989819D02*
X67415601Y-106989819D01*
X67415601Y-106989819D02*
X67510839Y-106942200D01*
X67510839Y-106942200D02*
X67558458Y-106894580D01*
X67558458Y-106894580D02*
X67606077Y-106799342D01*
X67606077Y-106799342D02*
X67606077Y-106513628D01*
X67606077Y-106513628D02*
X67558458Y-106418390D01*
X67558458Y-106418390D02*
X67510839Y-106370771D01*
X67510839Y-106370771D02*
X67415601Y-106323152D01*
X67415601Y-106323152D02*
X67225125Y-106323152D01*
X67225125Y-106323152D02*
X67129887Y-106370771D01*
X66272744Y-106942200D02*
X66367982Y-106989819D01*
X66367982Y-106989819D02*
X66558458Y-106989819D01*
X66558458Y-106989819D02*
X66653696Y-106942200D01*
X66653696Y-106942200D02*
X66701315Y-106846961D01*
X66701315Y-106846961D02*
X66701315Y-106466009D01*
X66701315Y-106466009D02*
X66653696Y-106370771D01*
X66653696Y-106370771D02*
X66558458Y-106323152D01*
X66558458Y-106323152D02*
X66367982Y-106323152D01*
X66367982Y-106323152D02*
X66272744Y-106370771D01*
X66272744Y-106370771D02*
X66225125Y-106466009D01*
X66225125Y-106466009D02*
X66225125Y-106561247D01*
X66225125Y-106561247D02*
X66701315Y-106656485D01*
X98963220Y-106989819D02*
X98963220Y-105989819D01*
X98963220Y-105989819D02*
X98629887Y-106704104D01*
X98629887Y-106704104D02*
X98296554Y-105989819D01*
X98296554Y-105989819D02*
X98296554Y-106989819D01*
X97867982Y-106942200D02*
X97725125Y-106989819D01*
X97725125Y-106989819D02*
X97487030Y-106989819D01*
X97487030Y-106989819D02*
X97391792Y-106942200D01*
X97391792Y-106942200D02*
X97344173Y-106894580D01*
X97344173Y-106894580D02*
X97296554Y-106799342D01*
X97296554Y-106799342D02*
X97296554Y-106704104D01*
X97296554Y-106704104D02*
X97344173Y-106608866D01*
X97344173Y-106608866D02*
X97391792Y-106561247D01*
X97391792Y-106561247D02*
X97487030Y-106513628D01*
X97487030Y-106513628D02*
X97677506Y-106466009D01*
X97677506Y-106466009D02*
X97772744Y-106418390D01*
X97772744Y-106418390D02*
X97820363Y-106370771D01*
X97820363Y-106370771D02*
X97867982Y-106275533D01*
X97867982Y-106275533D02*
X97867982Y-106180295D01*
X97867982Y-106180295D02*
X97820363Y-106085057D01*
X97820363Y-106085057D02*
X97772744Y-106037438D01*
X97772744Y-106037438D02*
X97677506Y-105989819D01*
X97677506Y-105989819D02*
X97439411Y-105989819D01*
X97439411Y-105989819D02*
X97296554Y-106037438D01*
X96963220Y-105989819D02*
X96296554Y-106989819D01*
X96296554Y-105989819D02*
X96963220Y-106989819D01*
X95153696Y-106989819D02*
X95153696Y-105989819D01*
X95153696Y-105989819D02*
X94820363Y-106704104D01*
X94820363Y-106704104D02*
X94487030Y-105989819D01*
X94487030Y-105989819D02*
X94487030Y-106989819D01*
X93867982Y-106989819D02*
X93963220Y-106942200D01*
X93963220Y-106942200D02*
X94010839Y-106894580D01*
X94010839Y-106894580D02*
X94058458Y-106799342D01*
X94058458Y-106799342D02*
X94058458Y-106513628D01*
X94058458Y-106513628D02*
X94010839Y-106418390D01*
X94010839Y-106418390D02*
X93963220Y-106370771D01*
X93963220Y-106370771D02*
X93867982Y-106323152D01*
X93867982Y-106323152D02*
X93725125Y-106323152D01*
X93725125Y-106323152D02*
X93629887Y-106370771D01*
X93629887Y-106370771D02*
X93582268Y-106418390D01*
X93582268Y-106418390D02*
X93534649Y-106513628D01*
X93534649Y-106513628D02*
X93534649Y-106799342D01*
X93534649Y-106799342D02*
X93582268Y-106894580D01*
X93582268Y-106894580D02*
X93629887Y-106942200D01*
X93629887Y-106942200D02*
X93725125Y-106989819D01*
X93725125Y-106989819D02*
X93867982Y-106989819D01*
X92677506Y-106989819D02*
X92677506Y-105989819D01*
X92677506Y-106942200D02*
X92772744Y-106989819D01*
X92772744Y-106989819D02*
X92963220Y-106989819D01*
X92963220Y-106989819D02*
X93058458Y-106942200D01*
X93058458Y-106942200D02*
X93106077Y-106894580D01*
X93106077Y-106894580D02*
X93153696Y-106799342D01*
X93153696Y-106799342D02*
X93153696Y-106513628D01*
X93153696Y-106513628D02*
X93106077Y-106418390D01*
X93106077Y-106418390D02*
X93058458Y-106370771D01*
X93058458Y-106370771D02*
X92963220Y-106323152D01*
X92963220Y-106323152D02*
X92772744Y-106323152D01*
X92772744Y-106323152D02*
X92677506Y-106370771D01*
X91820363Y-106942200D02*
X91915601Y-106989819D01*
X91915601Y-106989819D02*
X92106077Y-106989819D01*
X92106077Y-106989819D02*
X92201315Y-106942200D01*
X92201315Y-106942200D02*
X92248934Y-106846961D01*
X92248934Y-106846961D02*
X92248934Y-106466009D01*
X92248934Y-106466009D02*
X92201315Y-106370771D01*
X92201315Y-106370771D02*
X92106077Y-106323152D01*
X92106077Y-106323152D02*
X91915601Y-106323152D01*
X91915601Y-106323152D02*
X91820363Y-106370771D01*
X91820363Y-106370771D02*
X91772744Y-106466009D01*
X91772744Y-106466009D02*
X91772744Y-106561247D01*
X91772744Y-106561247D02*
X92248934Y-106656485D01*
X83999819Y-81716666D02*
X84714104Y-81716666D01*
X84714104Y-81716666D02*
X84856961Y-81669047D01*
X84856961Y-81669047D02*
X84952200Y-81573809D01*
X84952200Y-81573809D02*
X84999819Y-81430952D01*
X84999819Y-81430952D02*
X84999819Y-81335714D01*
X84999819Y-82192857D02*
X83999819Y-82192857D01*
X83999819Y-82192857D02*
X83999819Y-82573809D01*
X83999819Y-82573809D02*
X84047438Y-82669047D01*
X84047438Y-82669047D02*
X84095057Y-82716666D01*
X84095057Y-82716666D02*
X84190295Y-82764285D01*
X84190295Y-82764285D02*
X84333152Y-82764285D01*
X84333152Y-82764285D02*
X84428390Y-82716666D01*
X84428390Y-82716666D02*
X84476009Y-82669047D01*
X84476009Y-82669047D02*
X84523628Y-82573809D01*
X84523628Y-82573809D02*
X84523628Y-82192857D01*
X83999819Y-83621428D02*
X83999819Y-83430952D01*
X83999819Y-83430952D02*
X84047438Y-83335714D01*
X84047438Y-83335714D02*
X84095057Y-83288095D01*
X84095057Y-83288095D02*
X84237914Y-83192857D01*
X84237914Y-83192857D02*
X84428390Y-83145238D01*
X84428390Y-83145238D02*
X84809342Y-83145238D01*
X84809342Y-83145238D02*
X84904580Y-83192857D01*
X84904580Y-83192857D02*
X84952200Y-83240476D01*
X84952200Y-83240476D02*
X84999819Y-83335714D01*
X84999819Y-83335714D02*
X84999819Y-83526190D01*
X84999819Y-83526190D02*
X84952200Y-83621428D01*
X84952200Y-83621428D02*
X84904580Y-83669047D01*
X84904580Y-83669047D02*
X84809342Y-83716666D01*
X84809342Y-83716666D02*
X84571247Y-83716666D01*
X84571247Y-83716666D02*
X84476009Y-83669047D01*
X84476009Y-83669047D02*
X84428390Y-83621428D01*
X84428390Y-83621428D02*
X84380771Y-83526190D01*
X84380771Y-83526190D02*
X84380771Y-83335714D01*
X84380771Y-83335714D02*
X84428390Y-83240476D01*
X84428390Y-83240476D02*
X84476009Y-83192857D01*
X84476009Y-83192857D02*
X84571247Y-83145238D01*
X70063333Y-101794819D02*
X70063333Y-102509104D01*
X70063333Y-102509104D02*
X70110952Y-102651961D01*
X70110952Y-102651961D02*
X70206190Y-102747200D01*
X70206190Y-102747200D02*
X70349047Y-102794819D01*
X70349047Y-102794819D02*
X70444285Y-102794819D01*
X69587142Y-102794819D02*
X69587142Y-101794819D01*
X69587142Y-101794819D02*
X69206190Y-101794819D01*
X69206190Y-101794819D02*
X69110952Y-101842438D01*
X69110952Y-101842438D02*
X69063333Y-101890057D01*
X69063333Y-101890057D02*
X69015714Y-101985295D01*
X69015714Y-101985295D02*
X69015714Y-102128152D01*
X69015714Y-102128152D02*
X69063333Y-102223390D01*
X69063333Y-102223390D02*
X69110952Y-102271009D01*
X69110952Y-102271009D02*
X69206190Y-102318628D01*
X69206190Y-102318628D02*
X69587142Y-102318628D01*
X68682380Y-101794819D02*
X68063333Y-101794819D01*
X68063333Y-101794819D02*
X68396666Y-102175771D01*
X68396666Y-102175771D02*
X68253809Y-102175771D01*
X68253809Y-102175771D02*
X68158571Y-102223390D01*
X68158571Y-102223390D02*
X68110952Y-102271009D01*
X68110952Y-102271009D02*
X68063333Y-102366247D01*
X68063333Y-102366247D02*
X68063333Y-102604342D01*
X68063333Y-102604342D02*
X68110952Y-102699580D01*
X68110952Y-102699580D02*
X68158571Y-102747200D01*
X68158571Y-102747200D02*
X68253809Y-102794819D01*
X68253809Y-102794819D02*
X68539523Y-102794819D01*
X68539523Y-102794819D02*
X68634761Y-102747200D01*
X68634761Y-102747200D02*
X68682380Y-102699580D01*
X136611333Y-126222819D02*
X136611333Y-126937104D01*
X136611333Y-126937104D02*
X136658952Y-127079961D01*
X136658952Y-127079961D02*
X136754190Y-127175200D01*
X136754190Y-127175200D02*
X136897047Y-127222819D01*
X136897047Y-127222819D02*
X136992285Y-127222819D01*
X136135142Y-127222819D02*
X136135142Y-126222819D01*
X136135142Y-126222819D02*
X135754190Y-126222819D01*
X135754190Y-126222819D02*
X135658952Y-126270438D01*
X135658952Y-126270438D02*
X135611333Y-126318057D01*
X135611333Y-126318057D02*
X135563714Y-126413295D01*
X135563714Y-126413295D02*
X135563714Y-126556152D01*
X135563714Y-126556152D02*
X135611333Y-126651390D01*
X135611333Y-126651390D02*
X135658952Y-126699009D01*
X135658952Y-126699009D02*
X135754190Y-126746628D01*
X135754190Y-126746628D02*
X136135142Y-126746628D01*
X134992285Y-126651390D02*
X135087523Y-126603771D01*
X135087523Y-126603771D02*
X135135142Y-126556152D01*
X135135142Y-126556152D02*
X135182761Y-126460914D01*
X135182761Y-126460914D02*
X135182761Y-126413295D01*
X135182761Y-126413295D02*
X135135142Y-126318057D01*
X135135142Y-126318057D02*
X135087523Y-126270438D01*
X135087523Y-126270438D02*
X134992285Y-126222819D01*
X134992285Y-126222819D02*
X134801809Y-126222819D01*
X134801809Y-126222819D02*
X134706571Y-126270438D01*
X134706571Y-126270438D02*
X134658952Y-126318057D01*
X134658952Y-126318057D02*
X134611333Y-126413295D01*
X134611333Y-126413295D02*
X134611333Y-126460914D01*
X134611333Y-126460914D02*
X134658952Y-126556152D01*
X134658952Y-126556152D02*
X134706571Y-126603771D01*
X134706571Y-126603771D02*
X134801809Y-126651390D01*
X134801809Y-126651390D02*
X134992285Y-126651390D01*
X134992285Y-126651390D02*
X135087523Y-126699009D01*
X135087523Y-126699009D02*
X135135142Y-126746628D01*
X135135142Y-126746628D02*
X135182761Y-126841866D01*
X135182761Y-126841866D02*
X135182761Y-127032342D01*
X135182761Y-127032342D02*
X135135142Y-127127580D01*
X135135142Y-127127580D02*
X135087523Y-127175200D01*
X135087523Y-127175200D02*
X134992285Y-127222819D01*
X134992285Y-127222819D02*
X134801809Y-127222819D01*
X134801809Y-127222819D02*
X134706571Y-127175200D01*
X134706571Y-127175200D02*
X134658952Y-127127580D01*
X134658952Y-127127580D02*
X134611333Y-127032342D01*
X134611333Y-127032342D02*
X134611333Y-126841866D01*
X134611333Y-126841866D02*
X134658952Y-126746628D01*
X134658952Y-126746628D02*
X134706571Y-126699009D01*
X134706571Y-126699009D02*
X134801809Y-126651390D01*
X136469333Y-136382819D02*
X136469333Y-137097104D01*
X136469333Y-137097104D02*
X136516952Y-137239961D01*
X136516952Y-137239961D02*
X136612190Y-137335200D01*
X136612190Y-137335200D02*
X136755047Y-137382819D01*
X136755047Y-137382819D02*
X136850285Y-137382819D01*
X135993142Y-137382819D02*
X135993142Y-136382819D01*
X135993142Y-136382819D02*
X135612190Y-136382819D01*
X135612190Y-136382819D02*
X135516952Y-136430438D01*
X135516952Y-136430438D02*
X135469333Y-136478057D01*
X135469333Y-136478057D02*
X135421714Y-136573295D01*
X135421714Y-136573295D02*
X135421714Y-136716152D01*
X135421714Y-136716152D02*
X135469333Y-136811390D01*
X135469333Y-136811390D02*
X135516952Y-136859009D01*
X135516952Y-136859009D02*
X135612190Y-136906628D01*
X135612190Y-136906628D02*
X135993142Y-136906628D01*
X135088380Y-136382819D02*
X134421714Y-136382819D01*
X134421714Y-136382819D02*
X134850285Y-137382819D01*
X137087523Y-127702819D02*
X137087523Y-128417104D01*
X137087523Y-128417104D02*
X137135142Y-128559961D01*
X137135142Y-128559961D02*
X137230380Y-128655200D01*
X137230380Y-128655200D02*
X137373237Y-128702819D01*
X137373237Y-128702819D02*
X137468475Y-128702819D01*
X136611332Y-128702819D02*
X136611332Y-127702819D01*
X136611332Y-127702819D02*
X136230380Y-127702819D01*
X136230380Y-127702819D02*
X136135142Y-127750438D01*
X136135142Y-127750438D02*
X136087523Y-127798057D01*
X136087523Y-127798057D02*
X136039904Y-127893295D01*
X136039904Y-127893295D02*
X136039904Y-128036152D01*
X136039904Y-128036152D02*
X136087523Y-128131390D01*
X136087523Y-128131390D02*
X136135142Y-128179009D01*
X136135142Y-128179009D02*
X136230380Y-128226628D01*
X136230380Y-128226628D02*
X136611332Y-128226628D01*
X135087523Y-128702819D02*
X135658951Y-128702819D01*
X135373237Y-128702819D02*
X135373237Y-127702819D01*
X135373237Y-127702819D02*
X135468475Y-127845676D01*
X135468475Y-127845676D02*
X135563713Y-127940914D01*
X135563713Y-127940914D02*
X135658951Y-127988533D01*
X134468475Y-127702819D02*
X134373237Y-127702819D01*
X134373237Y-127702819D02*
X134277999Y-127750438D01*
X134277999Y-127750438D02*
X134230380Y-127798057D01*
X134230380Y-127798057D02*
X134182761Y-127893295D01*
X134182761Y-127893295D02*
X134135142Y-128083771D01*
X134135142Y-128083771D02*
X134135142Y-128321866D01*
X134135142Y-128321866D02*
X134182761Y-128512342D01*
X134182761Y-128512342D02*
X134230380Y-128607580D01*
X134230380Y-128607580D02*
X134277999Y-128655200D01*
X134277999Y-128655200D02*
X134373237Y-128702819D01*
X134373237Y-128702819D02*
X134468475Y-128702819D01*
X134468475Y-128702819D02*
X134563713Y-128655200D01*
X134563713Y-128655200D02*
X134611332Y-128607580D01*
X134611332Y-128607580D02*
X134658951Y-128512342D01*
X134658951Y-128512342D02*
X134706570Y-128321866D01*
X134706570Y-128321866D02*
X134706570Y-128083771D01*
X134706570Y-128083771D02*
X134658951Y-127893295D01*
X134658951Y-127893295D02*
X134611332Y-127798057D01*
X134611332Y-127798057D02*
X134563713Y-127750438D01*
X134563713Y-127750438D02*
X134468475Y-127702819D01*
X96733333Y-101794819D02*
X96733333Y-102509104D01*
X96733333Y-102509104D02*
X96780952Y-102651961D01*
X96780952Y-102651961D02*
X96876190Y-102747200D01*
X96876190Y-102747200D02*
X97019047Y-102794819D01*
X97019047Y-102794819D02*
X97114285Y-102794819D01*
X96257142Y-102794819D02*
X96257142Y-101794819D01*
X96257142Y-101794819D02*
X95876190Y-101794819D01*
X95876190Y-101794819D02*
X95780952Y-101842438D01*
X95780952Y-101842438D02*
X95733333Y-101890057D01*
X95733333Y-101890057D02*
X95685714Y-101985295D01*
X95685714Y-101985295D02*
X95685714Y-102128152D01*
X95685714Y-102128152D02*
X95733333Y-102223390D01*
X95733333Y-102223390D02*
X95780952Y-102271009D01*
X95780952Y-102271009D02*
X95876190Y-102318628D01*
X95876190Y-102318628D02*
X96257142Y-102318628D01*
X94733333Y-102794819D02*
X95304761Y-102794819D01*
X95019047Y-102794819D02*
X95019047Y-101794819D01*
X95019047Y-101794819D02*
X95114285Y-101937676D01*
X95114285Y-101937676D02*
X95209523Y-102032914D01*
X95209523Y-102032914D02*
X95304761Y-102080533D01*
X89729819Y-81701666D02*
X90444104Y-81701666D01*
X90444104Y-81701666D02*
X90586961Y-81654047D01*
X90586961Y-81654047D02*
X90682200Y-81558809D01*
X90682200Y-81558809D02*
X90729819Y-81415952D01*
X90729819Y-81415952D02*
X90729819Y-81320714D01*
X90729819Y-82177857D02*
X89729819Y-82177857D01*
X89729819Y-82177857D02*
X89729819Y-82558809D01*
X89729819Y-82558809D02*
X89777438Y-82654047D01*
X89777438Y-82654047D02*
X89825057Y-82701666D01*
X89825057Y-82701666D02*
X89920295Y-82749285D01*
X89920295Y-82749285D02*
X90063152Y-82749285D01*
X90063152Y-82749285D02*
X90158390Y-82701666D01*
X90158390Y-82701666D02*
X90206009Y-82654047D01*
X90206009Y-82654047D02*
X90253628Y-82558809D01*
X90253628Y-82558809D02*
X90253628Y-82177857D01*
X89729819Y-83654047D02*
X89729819Y-83177857D01*
X89729819Y-83177857D02*
X90206009Y-83130238D01*
X90206009Y-83130238D02*
X90158390Y-83177857D01*
X90158390Y-83177857D02*
X90110771Y-83273095D01*
X90110771Y-83273095D02*
X90110771Y-83511190D01*
X90110771Y-83511190D02*
X90158390Y-83606428D01*
X90158390Y-83606428D02*
X90206009Y-83654047D01*
X90206009Y-83654047D02*
X90301247Y-83701666D01*
X90301247Y-83701666D02*
X90539342Y-83701666D01*
X90539342Y-83701666D02*
X90634580Y-83654047D01*
X90634580Y-83654047D02*
X90682200Y-83606428D01*
X90682200Y-83606428D02*
X90729819Y-83511190D01*
X90729819Y-83511190D02*
X90729819Y-83273095D01*
X90729819Y-83273095D02*
X90682200Y-83177857D01*
X90682200Y-83177857D02*
X90634580Y-83130238D01*
X96733333Y-109414819D02*
X96733333Y-110129104D01*
X96733333Y-110129104D02*
X96780952Y-110271961D01*
X96780952Y-110271961D02*
X96876190Y-110367200D01*
X96876190Y-110367200D02*
X97019047Y-110414819D01*
X97019047Y-110414819D02*
X97114285Y-110414819D01*
X96257142Y-110414819D02*
X96257142Y-109414819D01*
X96257142Y-109414819D02*
X95876190Y-109414819D01*
X95876190Y-109414819D02*
X95780952Y-109462438D01*
X95780952Y-109462438D02*
X95733333Y-109510057D01*
X95733333Y-109510057D02*
X95685714Y-109605295D01*
X95685714Y-109605295D02*
X95685714Y-109748152D01*
X95685714Y-109748152D02*
X95733333Y-109843390D01*
X95733333Y-109843390D02*
X95780952Y-109891009D01*
X95780952Y-109891009D02*
X95876190Y-109938628D01*
X95876190Y-109938628D02*
X96257142Y-109938628D01*
X95304761Y-109510057D02*
X95257142Y-109462438D01*
X95257142Y-109462438D02*
X95161904Y-109414819D01*
X95161904Y-109414819D02*
X94923809Y-109414819D01*
X94923809Y-109414819D02*
X94828571Y-109462438D01*
X94828571Y-109462438D02*
X94780952Y-109510057D01*
X94780952Y-109510057D02*
X94733333Y-109605295D01*
X94733333Y-109605295D02*
X94733333Y-109700533D01*
X94733333Y-109700533D02*
X94780952Y-109843390D01*
X94780952Y-109843390D02*
X95352380Y-110414819D01*
X95352380Y-110414819D02*
X94733333Y-110414819D01*
X70063333Y-109414819D02*
X70063333Y-110129104D01*
X70063333Y-110129104D02*
X70110952Y-110271961D01*
X70110952Y-110271961D02*
X70206190Y-110367200D01*
X70206190Y-110367200D02*
X70349047Y-110414819D01*
X70349047Y-110414819D02*
X70444285Y-110414819D01*
X69587142Y-110414819D02*
X69587142Y-109414819D01*
X69587142Y-109414819D02*
X69206190Y-109414819D01*
X69206190Y-109414819D02*
X69110952Y-109462438D01*
X69110952Y-109462438D02*
X69063333Y-109510057D01*
X69063333Y-109510057D02*
X69015714Y-109605295D01*
X69015714Y-109605295D02*
X69015714Y-109748152D01*
X69015714Y-109748152D02*
X69063333Y-109843390D01*
X69063333Y-109843390D02*
X69110952Y-109891009D01*
X69110952Y-109891009D02*
X69206190Y-109938628D01*
X69206190Y-109938628D02*
X69587142Y-109938628D01*
X68158571Y-109748152D02*
X68158571Y-110414819D01*
X68396666Y-109367200D02*
X68634761Y-110081485D01*
X68634761Y-110081485D02*
X68015714Y-110081485D01*
X136611333Y-121142819D02*
X136611333Y-121857104D01*
X136611333Y-121857104D02*
X136658952Y-121999961D01*
X136658952Y-121999961D02*
X136754190Y-122095200D01*
X136754190Y-122095200D02*
X136897047Y-122142819D01*
X136897047Y-122142819D02*
X136992285Y-122142819D01*
X136135142Y-122142819D02*
X136135142Y-121142819D01*
X136135142Y-121142819D02*
X135754190Y-121142819D01*
X135754190Y-121142819D02*
X135658952Y-121190438D01*
X135658952Y-121190438D02*
X135611333Y-121238057D01*
X135611333Y-121238057D02*
X135563714Y-121333295D01*
X135563714Y-121333295D02*
X135563714Y-121476152D01*
X135563714Y-121476152D02*
X135611333Y-121571390D01*
X135611333Y-121571390D02*
X135658952Y-121619009D01*
X135658952Y-121619009D02*
X135754190Y-121666628D01*
X135754190Y-121666628D02*
X136135142Y-121666628D01*
X135087523Y-122142819D02*
X134897047Y-122142819D01*
X134897047Y-122142819D02*
X134801809Y-122095200D01*
X134801809Y-122095200D02*
X134754190Y-122047580D01*
X134754190Y-122047580D02*
X134658952Y-121904723D01*
X134658952Y-121904723D02*
X134611333Y-121714247D01*
X134611333Y-121714247D02*
X134611333Y-121333295D01*
X134611333Y-121333295D02*
X134658952Y-121238057D01*
X134658952Y-121238057D02*
X134706571Y-121190438D01*
X134706571Y-121190438D02*
X134801809Y-121142819D01*
X134801809Y-121142819D02*
X134992285Y-121142819D01*
X134992285Y-121142819D02*
X135087523Y-121190438D01*
X135087523Y-121190438D02*
X135135142Y-121238057D01*
X135135142Y-121238057D02*
X135182761Y-121333295D01*
X135182761Y-121333295D02*
X135182761Y-121571390D01*
X135182761Y-121571390D02*
X135135142Y-121666628D01*
X135135142Y-121666628D02*
X135087523Y-121714247D01*
X135087523Y-121714247D02*
X134992285Y-121761866D01*
X134992285Y-121761866D02*
X134801809Y-121761866D01*
X134801809Y-121761866D02*
X134706571Y-121714247D01*
X134706571Y-121714247D02*
X134658952Y-121666628D01*
X134658952Y-121666628D02*
X134611333Y-121571390D01*
D11*
X86645000Y-81150000D02*
X86045000Y-81150000D01*
X85345000Y-81850000D02*
X85345000Y-83250000D01*
X87345000Y-83250000D02*
X87345000Y-81850000D01*
X86045000Y-83950000D02*
X86645000Y-83950000D01*
X87345000Y-81850000D02*
G75*
G03*
X86645000Y-81150000I-699999J1D01*
G01*
X86045000Y-81150000D02*
G75*
G03*
X85345000Y-81850000I-1J-699999D01*
G01*
X86645000Y-83950000D02*
G75*
G03*
X87345000Y-83250000I0J700000D01*
G01*
X85345000Y-83250000D02*
G75*
G03*
X86045000Y-83950000I700000J0D01*
G01*
X70630000Y-104440000D02*
X70630000Y-103840000D01*
X69930000Y-103140000D02*
X68530000Y-103140000D01*
X68530000Y-105140000D02*
X69930000Y-105140000D01*
X67830000Y-103840000D02*
X67830000Y-104440000D01*
X69930000Y-105140000D02*
G75*
G03*
X70630000Y-104440000I1J699999D01*
G01*
X70630000Y-103840000D02*
G75*
G03*
X69930000Y-103140000I-699999J1D01*
G01*
X67830000Y-104440000D02*
G75*
G03*
X68530000Y-105140000I700000J0D01*
G01*
X68530000Y-103140000D02*
G75*
G03*
X67830000Y-103840000I0J-700000D01*
G01*
X134378000Y-124668000D02*
X134378000Y-125268000D01*
X135078000Y-125968000D02*
X136478000Y-125968000D01*
X136478000Y-123968000D02*
X135078000Y-123968000D01*
X137178000Y-125268000D02*
X137178000Y-124668000D01*
X135078000Y-123968000D02*
G75*
G03*
X134378000Y-124668000I-1J-699999D01*
G01*
X134378000Y-125268000D02*
G75*
G03*
X135078000Y-125968000I699999J-1D01*
G01*
X137178000Y-124668000D02*
G75*
G03*
X136478000Y-123968000I-700000J0D01*
G01*
X136478000Y-125968000D02*
G75*
G03*
X137178000Y-125268000I0J700000D01*
G01*
X134236000Y-134828000D02*
X134236000Y-135428000D01*
X134936000Y-136128000D02*
X136336000Y-136128000D01*
X136336000Y-134128000D02*
X134936000Y-134128000D01*
X137036000Y-135428000D02*
X137036000Y-134828000D01*
X134936000Y-134128000D02*
G75*
G03*
X134236000Y-134828000I-1J-699999D01*
G01*
X134236000Y-135428000D02*
G75*
G03*
X134936000Y-136128000I699999J-1D01*
G01*
X137036000Y-134828000D02*
G75*
G03*
X136336000Y-134128000I-700000J0D01*
G01*
X136336000Y-136128000D02*
G75*
G03*
X137036000Y-135428000I0J700000D01*
G01*
X137178000Y-130348000D02*
X137178000Y-129748000D01*
X136478000Y-129048000D02*
X135078000Y-129048000D01*
X135078000Y-131048000D02*
X136478000Y-131048000D01*
X134378000Y-129748000D02*
X134378000Y-130348000D01*
X136478000Y-131048000D02*
G75*
G03*
X137178000Y-130348000I1J699999D01*
G01*
X137178000Y-129748000D02*
G75*
G03*
X136478000Y-129048000I-699999J1D01*
G01*
X134378000Y-130348000D02*
G75*
G03*
X135078000Y-131048000I700000J0D01*
G01*
X135078000Y-129048000D02*
G75*
G03*
X134378000Y-129748000I0J-700000D01*
G01*
X97300000Y-104440000D02*
X97300000Y-103840000D01*
X96600000Y-103140000D02*
X95200000Y-103140000D01*
X95200000Y-105140000D02*
X96600000Y-105140000D01*
X94500000Y-103840000D02*
X94500000Y-104440000D01*
X96600000Y-105140000D02*
G75*
G03*
X97300000Y-104440000I1J699999D01*
G01*
X97300000Y-103840000D02*
G75*
G03*
X96600000Y-103140000I-699999J1D01*
G01*
X94500000Y-104440000D02*
G75*
G03*
X95200000Y-105140000I700000J0D01*
G01*
X95200000Y-103140000D02*
G75*
G03*
X94500000Y-103840000I0J-700000D01*
G01*
X92375000Y-81135000D02*
X91775000Y-81135000D01*
X91075000Y-81835000D02*
X91075000Y-83235000D01*
X93075000Y-83235000D02*
X93075000Y-81835000D01*
X91775000Y-83935000D02*
X92375000Y-83935000D01*
X93075000Y-81835000D02*
G75*
G03*
X92375000Y-81135000I-699999J1D01*
G01*
X91775000Y-81135000D02*
G75*
G03*
X91075000Y-81835000I-1J-699999D01*
G01*
X92375000Y-83935000D02*
G75*
G03*
X93075000Y-83235000I0J700000D01*
G01*
X91075000Y-83235000D02*
G75*
G03*
X91775000Y-83935000I700000J0D01*
G01*
X97300000Y-112060000D02*
X97300000Y-111460000D01*
X96600000Y-110760000D02*
X95200000Y-110760000D01*
X95200000Y-112760000D02*
X96600000Y-112760000D01*
X94500000Y-111460000D02*
X94500000Y-112060000D01*
X96600000Y-112760000D02*
G75*
G03*
X97300000Y-112060000I1J699999D01*
G01*
X97300000Y-111460000D02*
G75*
G03*
X96600000Y-110760000I-699999J1D01*
G01*
X94500000Y-112060000D02*
G75*
G03*
X95200000Y-112760000I700000J0D01*
G01*
X95200000Y-110760000D02*
G75*
G03*
X94500000Y-111460000I0J-700000D01*
G01*
X70630000Y-112060000D02*
X70630000Y-111460000D01*
X69930000Y-110760000D02*
X68530000Y-110760000D01*
X68530000Y-112760000D02*
X69930000Y-112760000D01*
X67830000Y-111460000D02*
X67830000Y-112060000D01*
X69930000Y-112760000D02*
G75*
G03*
X70630000Y-112060000I1J699999D01*
G01*
X70630000Y-111460000D02*
G75*
G03*
X69930000Y-110760000I-699999J1D01*
G01*
X67830000Y-112060000D02*
G75*
G03*
X68530000Y-112760000I700000J0D01*
G01*
X68530000Y-110760000D02*
G75*
G03*
X67830000Y-111460000I0J-700000D01*
G01*
X134378000Y-119588000D02*
X134378000Y-120188000D01*
X135078000Y-120888000D02*
X136478000Y-120888000D01*
X136478000Y-118888000D02*
X135078000Y-118888000D01*
X137178000Y-120188000D02*
X137178000Y-119588000D01*
X135078000Y-118888000D02*
G75*
G03*
X134378000Y-119588000I-1J-699999D01*
G01*
X134378000Y-120188000D02*
G75*
G03*
X135078000Y-120888000I699999J-1D01*
G01*
X137178000Y-119588000D02*
G75*
G03*
X136478000Y-118888000I-700000J0D01*
G01*
X136478000Y-120888000D02*
G75*
G03*
X137178000Y-120188000I0J700000D01*
G01*
M02*
