G04 #@! TF.GenerationSoftware,KiCad,Pcbnew,7.0.10*
G04 #@! TF.CreationDate,2024-02-23T16:37:41+09:00*
G04 #@! TF.ProjectId,game_pad,67616d65-5f70-4616-942e-6b696361645f,1*
G04 #@! TF.SameCoordinates,Original*
G04 #@! TF.FileFunction,Copper,L2,Bot*
G04 #@! TF.FilePolarity,Positive*
%FSLAX46Y46*%
G04 Gerber Fmt 4.6, Leading zero omitted, Abs format (unit mm)*
G04 Created by KiCad (PCBNEW 7.0.10) date 2024-02-23 16:37:41*
%MOMM*%
%LPD*%
G01*
G04 APERTURE LIST*
G04 Aperture macros list*
%AMFreePoly0*
4,1,19,0.500000,-0.750000,0.000000,-0.750000,0.000000,-0.744911,-0.071157,-0.744911,-0.207708,-0.704816,-0.327430,-0.627875,-0.420627,-0.520320,-0.479746,-0.390866,-0.500000,-0.250000,-0.500000,0.250000,-0.479746,0.390866,-0.420627,0.520320,-0.327430,0.627875,-0.207708,0.704816,-0.071157,0.744911,0.000000,0.744911,0.000000,0.750000,0.500000,0.750000,0.500000,-0.750000,0.500000,-0.750000,
$1*%
%AMFreePoly1*
4,1,19,0.000000,0.744911,0.071157,0.744911,0.207708,0.704816,0.327430,0.627875,0.420627,0.520320,0.479746,0.390866,0.500000,0.250000,0.500000,-0.250000,0.479746,-0.390866,0.420627,-0.520320,0.327430,-0.627875,0.207708,-0.704816,0.071157,-0.744911,0.000000,-0.744911,0.000000,-0.750000,-0.500000,-0.750000,-0.500000,0.750000,0.000000,0.750000,0.000000,0.744911,0.000000,0.744911,
$1*%
G04 Aperture macros list end*
G04 #@! TA.AperFunction,ComponentPad*
%ADD10O,1.600000X1.200000*%
G04 #@! TD*
G04 #@! TA.AperFunction,ComponentPad*
%ADD11R,1.700000X1.700000*%
G04 #@! TD*
G04 #@! TA.AperFunction,ComponentPad*
%ADD12O,1.700000X1.700000*%
G04 #@! TD*
G04 #@! TA.AperFunction,ComponentPad*
%ADD13R,2.200000X2.200000*%
G04 #@! TD*
G04 #@! TA.AperFunction,ComponentPad*
%ADD14O,2.200000X2.200000*%
G04 #@! TD*
G04 #@! TA.AperFunction,SMDPad,CuDef*
%ADD15FreePoly0,270.000000*%
G04 #@! TD*
G04 #@! TA.AperFunction,SMDPad,CuDef*
%ADD16FreePoly1,270.000000*%
G04 #@! TD*
G04 #@! TA.AperFunction,SMDPad,CuDef*
%ADD17FreePoly0,180.000000*%
G04 #@! TD*
G04 #@! TA.AperFunction,SMDPad,CuDef*
%ADD18FreePoly1,180.000000*%
G04 #@! TD*
G04 #@! TA.AperFunction,SMDPad,CuDef*
%ADD19FreePoly0,0.000000*%
G04 #@! TD*
G04 #@! TA.AperFunction,SMDPad,CuDef*
%ADD20FreePoly1,0.000000*%
G04 #@! TD*
G04 #@! TA.AperFunction,ViaPad*
%ADD21C,0.800000*%
G04 #@! TD*
G04 #@! TA.AperFunction,Conductor*
%ADD22C,0.600000*%
G04 #@! TD*
G04 #@! TA.AperFunction,Conductor*
%ADD23C,0.250000*%
G04 #@! TD*
G04 APERTURE END LIST*
G04 #@! TA.AperFunction,EtchedComponent*
G36*
X86645000Y-82800000D02*
G01*
X86045000Y-82800000D01*
X86045000Y-82300000D01*
X86645000Y-82300000D01*
X86645000Y-82800000D01*
G37*
G04 #@! TD.AperFunction*
G04 #@! TA.AperFunction,EtchedComponent*
G36*
X136028000Y-125268000D02*
G01*
X135528000Y-125268000D01*
X135528000Y-124668000D01*
X136028000Y-124668000D01*
X136028000Y-125268000D01*
G37*
G04 #@! TD.AperFunction*
G04 #@! TA.AperFunction,EtchedComponent*
G36*
X135886000Y-135428000D02*
G01*
X135386000Y-135428000D01*
X135386000Y-134828000D01*
X135886000Y-134828000D01*
X135886000Y-135428000D01*
G37*
G04 #@! TD.AperFunction*
G04 #@! TA.AperFunction,EtchedComponent*
G36*
X136028000Y-130348000D02*
G01*
X135528000Y-130348000D01*
X135528000Y-129748000D01*
X136028000Y-129748000D01*
X136028000Y-130348000D01*
G37*
G04 #@! TD.AperFunction*
G04 #@! TA.AperFunction,EtchedComponent*
G36*
X96150000Y-104440000D02*
G01*
X95650000Y-104440000D01*
X95650000Y-103840000D01*
X96150000Y-103840000D01*
X96150000Y-104440000D01*
G37*
G04 #@! TD.AperFunction*
G04 #@! TA.AperFunction,EtchedComponent*
G36*
X96150000Y-112060000D02*
G01*
X95650000Y-112060000D01*
X95650000Y-111460000D01*
X96150000Y-111460000D01*
X96150000Y-112060000D01*
G37*
G04 #@! TD.AperFunction*
G04 #@! TA.AperFunction,EtchedComponent*
G36*
X136028000Y-120188000D02*
G01*
X135528000Y-120188000D01*
X135528000Y-119588000D01*
X136028000Y-119588000D01*
X136028000Y-120188000D01*
G37*
G04 #@! TD.AperFunction*
D10*
X150790000Y-130700000D03*
X155790000Y-132900000D03*
D11*
X93980000Y-73660000D03*
D12*
X96520000Y-73660000D03*
X99060000Y-73660000D03*
X101600000Y-73660000D03*
X104140000Y-73660000D03*
X106680000Y-73660000D03*
D13*
X130556000Y-119888000D03*
D14*
X140716000Y-119888000D03*
D13*
X130556000Y-124968000D03*
D14*
X140716000Y-124968000D03*
D10*
X171315000Y-110380000D03*
X176315000Y-112580000D03*
D13*
X130556000Y-130048000D03*
D14*
X140716000Y-130048000D03*
D13*
X109982000Y-108585000D03*
D14*
X109982000Y-98425000D03*
D10*
X71200000Y-130700000D03*
X76200000Y-132900000D03*
D13*
X116205000Y-108585000D03*
D14*
X116205000Y-98425000D03*
D10*
X130470000Y-110380000D03*
X135470000Y-112580000D03*
D13*
X130556000Y-135128000D03*
D14*
X140716000Y-135128000D03*
D10*
X150780000Y-90060000D03*
X155780000Y-92260000D03*
D11*
X68580000Y-73660000D03*
D12*
X71120000Y-73660000D03*
X73660000Y-73660000D03*
X76200000Y-73660000D03*
X78740000Y-73660000D03*
X81280000Y-73660000D03*
X83820000Y-73660000D03*
X86360000Y-73660000D03*
X88900000Y-73660000D03*
D10*
X99560000Y-130700000D03*
X104560000Y-132900000D03*
D15*
X86345000Y-81900000D03*
D16*
X86345000Y-83200000D03*
D17*
X69880000Y-104140000D03*
D18*
X68580000Y-104140000D03*
D19*
X135128000Y-124968000D03*
D20*
X136428000Y-124968000D03*
D19*
X134986000Y-135128000D03*
D20*
X136286000Y-135128000D03*
D17*
X136428000Y-130048000D03*
D18*
X135128000Y-130048000D03*
D17*
X96550000Y-104140000D03*
D18*
X95250000Y-104140000D03*
D15*
X92075000Y-81885000D03*
D16*
X92075000Y-83185000D03*
D17*
X96550000Y-111760000D03*
D18*
X95250000Y-111760000D03*
D17*
X69880000Y-111760000D03*
D18*
X68580000Y-111760000D03*
D19*
X135128000Y-119888000D03*
D20*
X136428000Y-119888000D03*
D21*
X90170000Y-95250000D03*
X90170000Y-102235000D03*
X132080000Y-94615000D03*
X86360000Y-88265000D03*
X94615000Y-88265000D03*
X99060000Y-83820000D03*
X92710000Y-104140000D03*
D22*
X106680000Y-105410000D02*
X109855000Y-108585000D01*
X109855000Y-108585000D02*
X115900000Y-108585000D01*
X106680000Y-73660000D02*
X106680000Y-105410000D01*
X90170000Y-95250000D02*
X90170000Y-102235000D01*
X65405000Y-108585000D02*
X65405000Y-96520000D01*
X93980000Y-73660000D02*
X93980000Y-71120000D01*
X69850000Y-71120000D02*
X68580000Y-72390000D01*
X68580000Y-93345000D02*
X68580000Y-73660000D01*
X65405000Y-96520000D02*
X68580000Y-93345000D01*
X68580000Y-111760000D02*
X65405000Y-108585000D01*
X111125000Y-71120000D02*
X115570000Y-75565000D01*
X119270000Y-90060000D02*
X150780000Y-90060000D01*
X93980000Y-71120000D02*
X111125000Y-71120000D01*
X115570000Y-75565000D02*
X115570000Y-86360000D01*
X68580000Y-72390000D02*
X68580000Y-73660000D01*
X93980000Y-71120000D02*
X69850000Y-71120000D01*
X115570000Y-86360000D02*
X119270000Y-90060000D01*
X133350000Y-109855000D02*
X133350000Y-113538000D01*
X152400000Y-117348000D02*
X152400000Y-128524000D01*
X132080000Y-94615000D02*
X132080000Y-108585000D01*
X133350000Y-113538000D02*
X135128000Y-115316000D01*
X150790000Y-130134000D02*
X150790000Y-130700000D01*
X135128000Y-115316000D02*
X150368000Y-115316000D01*
X152400000Y-128524000D02*
X150790000Y-130134000D01*
X132080000Y-108585000D02*
X133350000Y-109855000D01*
X150368000Y-115316000D02*
X152400000Y-117348000D01*
X68580000Y-100965000D02*
X76200000Y-93345000D01*
X81280000Y-88265000D02*
X76200000Y-93345000D01*
X99060000Y-83820000D02*
X94615000Y-88265000D01*
X76200000Y-93345000D02*
X76200000Y-73660000D01*
X68580000Y-104140000D02*
X68580000Y-100965000D01*
X86360000Y-88265000D02*
X81280000Y-88265000D01*
X86360000Y-73660000D02*
X86360000Y-81885000D01*
D23*
X86360000Y-81885000D02*
X86345000Y-81900000D01*
D22*
X92710000Y-104140000D02*
X69880000Y-104140000D01*
X95250000Y-104140000D02*
X92710000Y-104140000D01*
X69880000Y-111760000D02*
X69880000Y-116810000D01*
X68765000Y-132900000D02*
X76200000Y-132900000D01*
X69880000Y-116810000D02*
X65405000Y-121285000D01*
X65405000Y-129540000D02*
X68765000Y-132900000D01*
X65405000Y-121285000D02*
X65405000Y-129540000D01*
X95250000Y-111760000D02*
X69880000Y-111760000D01*
X92075000Y-79375000D02*
X92075000Y-81885000D01*
X88900000Y-73660000D02*
X88900000Y-76200000D01*
X88900000Y-76200000D02*
X92075000Y-79375000D01*
X96520000Y-111790000D02*
X96550000Y-111760000D01*
X130556000Y-130048000D02*
X135128000Y-130048000D01*
X104140000Y-86360000D02*
X104140000Y-73660000D01*
X130556000Y-119888000D02*
X135128000Y-119888000D01*
X130556000Y-119888000D02*
X126492000Y-119888000D01*
X126492000Y-119888000D02*
X118364000Y-111760000D01*
X104140000Y-86995000D02*
X104140000Y-86868000D01*
X86345000Y-83200000D02*
X92060000Y-83200000D01*
X96550000Y-111760000D02*
X96550000Y-104140000D01*
X96550000Y-94585000D02*
X104140000Y-86995000D01*
X118364000Y-111760000D02*
X107696000Y-111760000D01*
D23*
X92060000Y-83200000D02*
X92075000Y-83185000D01*
D22*
X92075000Y-90110000D02*
X96550000Y-94585000D01*
X104140000Y-86995000D02*
X104140000Y-86360000D01*
X130556000Y-124968000D02*
X135128000Y-124968000D01*
X104140000Y-86868000D02*
X104140000Y-86360000D01*
X92075000Y-83185000D02*
X92075000Y-90110000D01*
X130556000Y-130048000D02*
X130556000Y-124968000D01*
X96550000Y-104140000D02*
X96550000Y-94585000D01*
X130556000Y-124968000D02*
X130556000Y-119888000D01*
X130556000Y-135128000D02*
X134986000Y-135128000D01*
X130556000Y-135128000D02*
X130556000Y-130048000D01*
X96550000Y-111760000D02*
X107696000Y-111760000D01*
X140716000Y-135128000D02*
X136286000Y-135128000D01*
X140716000Y-124968000D02*
X136428000Y-124968000D01*
X140716000Y-119888000D02*
X136428000Y-119888000D01*
X140716000Y-130048000D02*
X136428000Y-130048000D01*
M02*
